<svg id="glass" xmlns="http://www.w3.org/2000/svg" xmlns:xlink="http://www.w3.org/1999/xlink" viewBox="0 0 300 300" shape-rendering="geometricPrecision" text-rendering="geometricPrecision"><g id="glass-u-clip-group" transform="translate(.000007 42.016243)" clip-path="url(#glass-u-clipping-paths)"><rect id="glass-s-rect1" width="89.566639" height="107.216856" rx="0" ry="0" transform="matrix(1.056872 0 0 0.948499 102.669765 108.30395)" fill="#ec9d00" stroke-width="0"/><clipPath id="glass-u-clipping-paths"><path id="glass-s-path1" d="M117.367293,92.049349l.41623,14.839516-2.36035,12.912835l3.12221,14.008468l3.90799,21.581307l4.07142,52.740492h46.9371l4.882598-54.511437q1.003564-15.418404,1.368497-15.87457c.364933-.456166,4.876605-13.185979,4.863005-13.754793q-.0136-.568814-3.307-17.629415l2.367021-14.312405-66.268721.000002Z" transform="translate(0 0.000002)" fill="#f00" stroke="#3f5787" stroke-width="0.6"/></clipPath></g><g id="glass-u-copy-of-clip-group" transform="translate(-109.449723 42.016243)" opacity="0" clip-path="url(#glass-u-clipping-paths2)"><rect id="glass-s-rect2" width="89.566639" height="107.216856" rx="0" ry="0" transform="matrix(1.056872 0 0 0 102.669765 209.999031)" fill="#ec9d00" stroke-width="0"/><clipPath id="glass-u-clipping-paths2"><path id="glass-s-path2" d="M117.367293,92.049349l.41623,14.839516-2.36035,12.912835l3.12221,14.008468l3.90799,21.581307l4.07142,52.740492h46.9371l4.882598-54.511437q1.003564-15.418404,1.368497-15.87457c.364933-.456166,4.876605-13.185979,4.863005-13.754793q-.0136-.568814-3.307-17.629415l2.367021-14.312405-66.268721.000002Z" transform="translate(0 0.000002)" fill="#f00" stroke="#3f5787" stroke-width="0.6"/></clipPath></g><path id="glass-u-glass" d="M0.440737,0L71.3736,0l-.2041,2.04838c-.1447,1.45197-.2793,2.77749-.4027,3.99295-1.0017,9.86397-1.2672,12.47827-.2044,16.59237l.0072.0279.0064.0282c1.1182,4.9562,1.6451,8.3254,1.3373,11.6455-.3068,3.3096-1.4309,6.426-3.2807,10.8828-.8844,2.3122-1.5593,4.7208-1.7277,7.2562l-.0011.0158-.0013.0158c-1.2918,15.4736-2.2567,27.3205-2.9952,36.3869-.9052,11.1132-1.4701,18.0492-1.8797,22.3652-.1862,1.963-.3428,3.41-.4872,4.475-.1401,1.032-.2822,1.815-.4673,2.38-.1632.499-.5505,1.441-1.6112,1.778-.4292.137-.8071.11-.9379.1-.0235-.001-.047-.003-.0662-.005-.0129-.001-.0244-.002-.0338-.003l-.0547-.005c-.0051,0-.0089-.001-.0115-.001h-44.7255c-.002,0-.0113.001-.0323.002l-.0632.005c-.0256.002-.0628.005-.1024.008-.1319.009-.4973.033-.9096-.088-1.066-.313-1.4852-1.226-1.6703-1.773-.1952-.577-.3387-1.37-.4769-2.402-.1428-1.065-.295-2.515-.47533-4.476-.33622-3.658-.7793-9.201-1.44889-17.5781-.76362-9.5537-1.82184-22.793-3.35208-41.1232-.35853-2.6816-.88565-5.1128-1.734-7.3337-1.84977-4.4567-2.973833-7.5731-3.280603-10.8827-.307676-3.3192.218876-6.6876,1.336483-11.6418.9045-4.0869.63641-6.7193-.334-16.24743-.134948-1.32505-.283481-2.78346-.444332-4.39769L0.440737,0ZM4.54539,3.726c.08755.86209.17128,1.67837.25075,2.45313.95378,9.29837,1.29395,12.61467.25064,17.32627l-.00161.0072c-1.10949,4.9177-1.51081,7.7896-1.26164,10.4776.24959,2.6927,1.16403,5.3463,3.02106,9.819l.00986.0237.0092.0241c.99805,2.6041,1.58119,5.367,1.96385,8.2471l.00601.0452.00379.0455c1.537,18.4098,2.5964,31.6658,3.3595,41.214.6668,8.3432,1.1074,13.8562,1.4426,17.5012.1793,1.951.3258,3.337.4579,4.323.0574.429.1097.762.1561,1.018h43.4908c.0467-.259.0993-.593.1573-1.021.1341-.988.285-2.375.47-4.325.4077-4.296.9693-11.1916,1.8712-22.2647.7378-9.0593,1.7034-20.9148,2.9987-36.4303.2041-3.0387,1.0092-5.8331,1.9749-8.353l.0093-.0241.0098-.0237c1.857-4.4727,2.7715-7.1263,3.0211-9.819.2487-2.683-.1507-5.5491-1.2554-10.4499-1.2306-4.7819-.8849-8.1581.09-17.6807.0695-.67903.1423-1.38932.2179-2.1336h-62.72361ZM57.5196,117.02c-.0003-.001.0036-.011.0121-.029-.0076.021-.0119.03-.0121.029Zm1.2576-.746c.0195.001.0252.002.0134.001-.0054-.001-.0098-.001-.0134-.001Zm-45.5862,0c-.019.001-.0148,0,.0072,0-.0022,0-.0046,0-.0072,0Z" transform="translate(113.999993 132.017212)" clip-rule="evenodd" fill="#d38c00" fill-rule="evenodd"/><path id="glass-u-copy-of-glass" d="M0.440737,0L71.3736,0l-.2041,2.04838c-.1447,1.45197-.2793,2.77749-.4027,3.99295-1.0017,9.86397-1.2672,12.47827-.2044,16.59237l.0072.0279.0064.0282c1.1182,4.9562,1.6451,8.3254,1.3373,11.6455-.3068,3.3096-1.4309,6.426-3.2807,10.8828-.8844,2.3122-1.5593,4.7208-1.7277,7.2562l-.0011.0158-.0013.0158c-1.2918,15.4736-2.2567,27.3205-2.9952,36.3869-.9052,11.1132-1.4701,18.0492-1.8797,22.3652-.1862,1.963-.3428,3.41-.4872,4.475-.1401,1.032-.2822,1.815-.4673,2.38-.1632.499-.5505,1.441-1.6112,1.778-.4292.137-.8071.11-.9379.1-.0235-.001-.047-.003-.0662-.005-.0129-.001-.0244-.002-.0338-.003l-.0547-.005c-.0051,0-.0089-.001-.0115-.001h-44.7255c-.002,0-.0113.001-.0323.002l-.0632.005c-.0256.002-.0628.005-.1024.008-.1319.009-.4973.033-.9096-.088-1.066-.313-1.4852-1.226-1.6703-1.773-.1952-.577-.3387-1.37-.4769-2.402-.1428-1.065-.295-2.515-.47533-4.476-.33622-3.658-.7793-9.201-1.44889-17.5781-.76362-9.5537-1.82184-22.793-3.35208-41.1232-.35853-2.6816-.88565-5.1128-1.734-7.3337-1.84977-4.4567-2.973833-7.5731-3.280603-10.8827-.307676-3.3192.218876-6.6876,1.336483-11.6418.9045-4.0869.63641-6.7193-.334-16.24743-.134948-1.32505-.283481-2.78346-.444332-4.39769L0.440737,0ZM4.54539,3.726c.08755.86209.17128,1.67837.25075,2.45313.95378,9.29837,1.29395,12.61467.25064,17.32627l-.00161.0072c-1.10949,4.9177-1.51081,7.7896-1.26164,10.4776.24959,2.6927,1.16403,5.3463,3.02106,9.819l.00986.0237.0092.0241c.99805,2.6041,1.58119,5.367,1.96385,8.2471l.00601.0452.00379.0455c1.537,18.4098,2.5964,31.6658,3.3595,41.214.6668,8.3432,1.1074,13.8562,1.4426,17.5012.1793,1.951.3258,3.337.4579,4.323.0574.429.1097.762.1561,1.018h43.4908c.0467-.259.0993-.593.1573-1.021.1341-.988.285-2.375.47-4.325.4077-4.296.9693-11.1916,1.8712-22.2647.7378-9.0593,1.7034-20.9148,2.9987-36.4303.2041-3.0387,1.0092-5.8331,1.9749-8.353l.0093-.0241.0098-.0237c1.857-4.4727,2.7715-7.1263,3.0211-9.819.2487-2.683-.1507-5.5491-1.2554-10.4499-1.2306-4.7819-.8849-8.1581.09-17.6807.0695-.67903.1423-1.38932.2179-2.1336h-62.72361ZM57.5196,117.02c-.0003-.001.0036-.011.0121-.029-.0076.021-.0119.03-.0121.029Zm1.2576-.746c.0195.001.0252.002.0134.001-.0054-.001-.0098-.001-.0134-.001Zm-45.5862,0c-.019.001-.0148,0,.0072,0-.0022,0-.0046,0-.0072,0Z" transform="translate(4.550263 132.017212)" opacity="0" clip-rule="evenodd" fill="#d38c00" fill-rule="evenodd"/><rect id="glass-u-flow" width="6" height="96.037128" rx="0" ry="0" transform="matrix(1 0 0 0.000026 146.999584 11.538487)" fill="#ec9d00" stroke-width="0"/>
</svg>