<svg width="79" height="81" viewBox="0 0 79 81" fill="none" xmlns="http://www.w3.org/2000/svg">
<path d="M64.0592 14.4426C64.3493 14.2249 64.4944 13.9348 64.4944 13.7172C64.567 13.4995 64.4944 13.2819 64.4219 12.9918C64.8571 13.2094 65.2924 13.0643 65.8001 12.6291C66.1628 12.2664 66.3079 11.9762 66.2354 11.6135C66.1628 11.2508 66.0178 10.9607 65.6551 10.598L64.712 9.5824C64.6395 9.50986 64.567 9.43733 64.4944 9.43733C64.4219 9.43733 64.3493 9.43733 64.2768 9.50986L60.5773 12.9918C60.5047 13.0643 60.5047 13.1368 60.5047 13.2094C60.5047 13.2819 60.5773 13.3545 60.6498 13.427L61.7379 14.5876C62.0281 14.9503 62.3908 15.0954 62.7535 15.0954C63.1162 15.0954 63.5514 14.9503 63.9141 14.5876L64.0592 14.4426ZM64.4944 10.4529L65.0747 11.1057C65.4374 11.4684 65.4374 11.8311 65.0747 12.1938C64.712 12.5565 64.3493 12.5565 63.9866 12.1938L63.3338 11.541L64.4944 10.4529ZM63.4789 13.8622L63.4063 13.9348C62.9711 14.37 62.5359 14.37 62.1006 13.9348L61.4478 13.2094L62.8986 11.8311L63.5514 12.5565C63.769 12.7741 63.8416 12.9918 63.8416 13.1368C63.8416 13.427 63.769 13.6446 63.4789 13.8622Z" fill="#2B1708"/>
<path d="M67.6136 17.3441C67.9038 17.3441 68.2665 17.2716 68.6292 16.9814C69.4996 16.4011 69.5722 15.6032 68.9193 14.6602L68.0489 13.427C67.9763 13.3545 67.9763 13.3545 67.9038 13.2819C67.8312 13.2819 67.7587 13.2819 67.6862 13.3545L63.5514 16.256C63.4789 16.3286 63.4789 16.4011 63.4789 16.4737C63.4789 16.5462 63.5514 16.6913 63.5514 16.7638C63.6239 16.8364 63.6965 16.9089 63.769 16.9814C63.8416 17.054 63.9141 16.9814 63.9866 16.9814L65.7276 15.7483L66.1628 16.4011L65.0022 18.5773C64.9296 18.7224 64.9296 18.8675 65.0022 18.94C65.0747 19.0125 65.1473 19.0851 65.2923 19.1576C65.4374 19.1576 65.51 19.1576 65.5825 19.1576L65.655 19.0851L66.6706 17.054C67.0333 17.1991 67.3235 17.2716 67.6136 17.3441ZM67.8312 14.2975L68.339 15.0229C68.7017 15.5306 68.6292 15.9659 68.1214 16.3286C67.6136 16.6913 67.1784 16.6187 66.8157 16.0384L66.3079 15.313L67.8312 14.2975Z" fill="#2B1708"/>
<path d="M66.8157 20.5359L68.4116 19.7379L68.9193 20.7535C68.9919 20.826 68.9919 20.8986 69.0644 20.8986C69.137 20.8986 69.2095 20.8986 69.282 20.826C69.3546 20.7535 69.4271 20.7535 69.4271 20.681C69.4271 20.6084 69.4271 20.5359 69.4271 20.4633L68.9193 19.4478L70.4427 18.6498L71.4582 20.681C71.5308 20.7535 71.5308 20.826 71.6759 20.826C71.7484 20.826 71.8209 20.826 71.966 20.7535C72.0385 20.681 72.1111 20.681 72.1836 20.6084C72.2562 20.5359 72.2562 20.4633 72.1836 20.3908L70.9505 17.997C70.8779 17.9245 70.8779 17.8519 70.8054 17.7794C70.7328 17.7068 70.6603 17.7068 70.5878 17.7794L66.0903 20.0281C66.0178 20.1006 65.9452 20.1006 65.9452 20.2457C65.9452 20.3183 65.9452 20.3908 66.0178 20.5359L67.2509 22.9297C67.3235 23.0022 67.3235 23.0748 67.4686 23.0748C67.5411 23.0748 67.6136 23.0748 67.6862 23.0022C67.7587 22.9297 67.8312 22.9297 67.9038 22.7846C67.9763 22.7121 67.9763 22.6395 67.9038 22.567L66.8157 20.5359Z" fill="#2B1708"/>
<path d="M74.5049 28.2251C74.5774 28.2251 74.65 28.1525 74.65 28.0075C74.65 27.8624 74.65 27.7898 74.65 27.6448C74.5774 27.4997 74.5049 27.4271 74.4324 27.4271H69.9349L72.3287 25.9764C72.4738 25.9038 72.5463 25.7587 72.4738 25.5411C72.4012 25.3235 72.3287 25.251 72.1111 25.251L69.282 25.396L73.1266 23.0022C73.1992 22.9297 73.2717 22.8572 73.1992 22.7121C73.1992 22.567 73.1266 22.4945 72.9816 22.4219C72.909 22.3494 72.8365 22.2768 72.6914 22.3494H72.6189L68.2665 25.1784C68.1939 25.251 68.1214 25.3235 68.1214 25.396C68.1214 25.4686 68.1214 25.6137 68.1214 25.7587C68.1214 25.9038 68.1939 25.9764 68.2665 26.0489C68.339 26.1214 68.4116 26.194 68.4841 26.194L70.8779 26.1214L68.9193 27.2095C68.8468 27.2821 68.7743 27.3546 68.7743 27.4271C68.7743 27.4997 68.7743 27.6448 68.7743 27.7898C68.7743 27.9349 68.8468 28.0075 68.9193 28.08C68.9919 28.1525 69.0644 28.2251 69.137 28.2251H74.5049Z" fill="#2B1708"/>
<path d="M69.4997 30.6189C69.4271 30.6914 69.4271 30.764 69.4271 30.9091L69.7173 33.593C69.7173 33.6656 69.7898 33.7381 69.8624 33.8106C69.9349 33.8832 70.0074 33.8832 70.08 33.8832C70.1525 33.8832 70.2976 33.8106 70.2976 33.8106C70.3701 33.7381 70.3701 33.6656 70.3701 33.593L70.1525 31.3443L71.8935 31.1992L72.0385 32.3598C72.0385 32.4324 72.1111 32.5049 72.1836 32.5775C72.2562 32.65 72.3287 32.65 72.4012 32.65C72.4738 32.65 72.5463 32.5775 72.6189 32.5775C72.6914 32.5049 72.6914 32.4324 72.6914 32.3598L72.5463 31.1992L74.3598 30.8365L74.5774 33.0852C74.5774 33.1578 74.65 33.2303 74.7225 33.3029C74.795 33.3754 74.8676 33.3754 75.0127 33.3754C75.0852 33.3754 75.1577 33.3029 75.2303 33.3029C75.3028 33.2303 75.3028 33.1578 75.3028 33.0852L75.0127 30.4013C75.0127 30.3287 74.9401 30.2562 74.9401 30.1837C74.8676 30.1111 74.795 30.1111 74.7225 30.1111L69.7173 30.6189C69.6447 30.5464 69.5722 30.5464 69.4997 30.6189Z" fill="#2B1708"/>
<path d="M75.3028 35.0438C75.2303 34.9713 75.2303 34.9713 75.1577 34.9713L70.1525 34.7536C70.08 34.7536 70.0074 34.7536 69.9349 34.8987C69.8624 34.9713 69.8624 35.0438 69.8624 35.1889C69.8624 35.334 69.8624 35.4065 69.9349 35.479C70.0074 35.5516 70.0074 35.6241 70.1525 35.6241L72.2562 35.6967V36.4946L70.0074 37.5102C69.8624 37.5827 69.7898 37.6552 69.7898 37.8003C69.7898 37.9454 69.7898 38.0179 69.9349 38.163C70.0074 38.2355 70.08 38.3081 70.2251 38.3081C70.2976 38.3081 70.2976 38.3081 70.3701 38.3081L72.4012 37.2925C72.4738 37.6552 72.6189 37.8728 72.8365 38.0905C73.0541 38.3081 73.4168 38.3806 73.852 38.4532C74.8676 38.5257 75.4479 37.9454 75.4479 36.7848L75.5204 35.334C75.3754 35.1889 75.3028 35.1163 75.3028 35.0438ZM74.5774 36.7122C74.5774 37.3651 74.2147 37.6552 73.6344 37.6552C73.0541 37.6552 72.7639 37.2925 72.7639 36.6397L72.8365 35.6967L74.65 35.7692L74.5774 36.7122Z" fill="#2B1708"/>
<path d="M74.7225 39.8314C74.7225 39.8314 74.6499 39.8314 74.5774 39.8314L71.4582 40.847C71.3857 40.847 71.3857 40.847 71.3857 40.847L69.4996 40.4843C69.4271 40.4843 69.3546 40.4843 69.282 40.5568C69.2095 40.6294 69.2095 40.7019 69.1369 40.847C69.1369 40.9195 69.1369 41.0646 69.1369 41.1371C69.1369 41.2097 69.2095 41.2822 69.282 41.2822L71.168 41.6449H71.2406L73.7069 43.7486C73.7069 43.7486 73.7795 43.7486 73.7795 43.8211C73.852 43.8211 73.9245 43.8211 74.0696 43.676C74.1422 43.6035 74.2147 43.4584 74.2147 43.3859C74.2147 43.2408 74.2147 43.1682 74.0696 43.0957L71.966 41.4273L74.5774 40.6294C74.7225 40.5568 74.795 40.4843 74.795 40.4117C74.795 40.2667 74.795 40.1941 74.795 40.049C74.8676 39.9765 74.795 39.904 74.7225 39.8314Z" fill="#2B1708"/>
<path d="M10.2348 43.676C10.2348 43.6035 10.2348 43.4584 10.2348 43.3859C10.2348 43.2408 10.1622 43.1683 10.0897 43.0957C10.0172 43.0232 9.94462 43.0232 9.87208 43.0232L6.24509 43.8211L7.91351 42.3703C7.98604 42.2978 8.05858 42.1527 8.05858 42.0802C8.05858 41.9351 7.98605 41.8625 7.84097 41.8625L5.80986 41.2822L9.3643 40.4843C9.43684 40.4843 9.50938 40.4117 9.50938 40.3392C9.50938 40.2667 9.50938 40.1216 9.50938 40.0491C9.50938 39.904 9.43684 39.8314 9.3643 39.7589C9.29176 39.6864 9.21922 39.6864 9.14668 39.6864L4.35906 40.7744C4.21398 40.7744 4.14145 40.847 4.06891 40.9195C3.99637 41.0646 3.99637 41.1371 3.99637 41.2822C3.99637 41.4273 4.06891 41.4998 4.14144 41.6449C4.21398 41.79 4.35906 41.79 4.57668 41.8625L6.75287 42.5154L5.01192 43.9662C4.86684 44.1113 4.7943 44.1838 4.72176 44.3289C4.72176 44.3289 4.72176 44.474 4.7943 44.619C4.7943 44.7641 4.86684 44.8367 4.93938 44.9092C5.01192 44.9817 5.157 44.9817 5.22954 44.9817L10.0172 43.8937C10.0897 43.8211 10.1622 43.7486 10.2348 43.676Z" fill="#2B1708"/>
<path d="M8.85651 38.3081C9.14667 37.9454 9.21921 37.5101 9.21921 37.0024C9.21921 36.4946 9.00159 36.0594 8.71143 35.7692C8.42127 35.479 7.98604 35.334 7.40572 35.4065L3.77874 35.6241C3.7062 35.6241 3.63366 35.6967 3.56112 35.7692C3.48858 35.8417 3.48858 35.9143 3.48858 36.0594C3.48858 36.2044 3.48858 36.277 3.56112 36.3495C3.63366 36.4221 3.7062 36.4946 3.77874 36.4221L7.40572 36.2044C8.05858 36.1319 8.42127 36.4221 8.42127 37.0749C8.42127 37.3651 8.34873 37.5827 8.20366 37.8003C8.05858 37.9454 7.84096 38.0905 7.47826 38.0905L3.85128 38.3081C3.77874 38.3081 3.7062 38.3806 3.63366 38.4532C3.56112 38.5257 3.56112 38.5982 3.56112 38.7433C3.56112 38.8884 3.56112 38.9609 3.63366 39.0335C3.7062 39.106 3.77874 39.1786 3.85128 39.106L7.47826 38.8884C8.20366 38.8159 8.63889 38.6708 8.85651 38.3081Z" fill="#2B1708"/>
<path d="M3.77876 33.9557L8.784 34.391C8.85654 34.391 8.92908 34.391 9.00162 34.3184C9.07416 34.2459 9.07416 34.1733 9.07416 34.0283C9.07416 33.8832 9.07416 33.8106 9.00162 33.7381C8.92908 33.6656 8.92908 33.593 8.784 33.593L5.3021 33.3029L8.92908 31.7795C9.1467 31.707 9.21924 31.5619 9.29178 31.3443C9.29178 31.1992 9.29178 31.1267 9.21924 31.0541C9.1467 30.9816 9.1467 30.9091 9.00162 30.9091L3.99638 30.4738C3.92384 30.4738 3.8513 30.4738 3.77876 30.5464C3.70622 30.6189 3.70622 30.6914 3.70622 30.8365C3.70622 30.9816 3.70622 31.0541 3.77876 31.1267C3.8513 31.1992 3.8513 31.2717 3.99638 31.2717L7.47829 31.5619L4.06892 33.0127C3.8513 33.0852 3.77876 33.1578 3.70622 33.2303C3.63369 33.3029 3.56115 33.4479 3.56115 33.593C3.56115 33.8106 3.63369 33.9557 3.77876 33.9557Z" fill="#2B1708"/>
<path d="M4.35906 29.023C4.35906 29.023 4.4316 29.023 4.50414 29.023L7.62334 28.1526C7.69588 28.1526 7.69588 28.1526 7.69588 28.1526L9.58191 28.5878C9.65445 28.5878 9.72699 28.5878 9.79953 28.5152C9.87207 28.4427 9.94461 28.3702 9.94461 28.2251C9.94461 28.1526 9.94461 28.0075 9.94461 27.9349C9.94461 27.8624 9.87207 27.7899 9.79953 27.7899L7.9135 27.3546H7.84096L5.44715 25.1784L5.37461 25.1059C5.30207 25.1059 5.22953 25.1059 5.08445 25.1784C5.01191 25.251 4.93937 25.396 4.93937 25.4686C4.93937 25.6137 4.93937 25.6862 5.08445 25.7587L7.1881 27.4997L4.57668 28.1526C4.4316 28.2251 4.35906 28.2976 4.35906 28.3702C4.35906 28.5152 4.35906 28.5878 4.35906 28.7329C4.21398 28.9505 4.28652 29.023 4.35906 29.023Z" fill="#2B1708"/>
<path d="M9.9446 26.3391C10.0897 26.4116 10.1622 26.4116 10.3073 26.2665C10.3798 26.194 10.4524 26.1214 10.5249 25.9764C10.5975 25.8313 10.5249 25.7587 10.4524 25.6862L9.50936 25.0333L10.1622 23.2924L11.3228 23.3649C11.4679 23.3649 11.5405 23.2924 11.613 23.1473C11.6855 23.0022 11.6855 22.8572 11.613 22.7846C11.613 22.6395 11.5405 22.567 11.4679 22.567H11.3954L6.17254 22.1318C5.95492 22.1318 5.88238 22.2768 5.7373 22.567C5.66476 22.8572 5.66476 23.0748 5.80984 23.1473L9.9446 26.3391ZM9.50936 23.2199L9.00158 24.6706L6.82539 23.0748L9.50936 23.2199Z" fill="#2B1708"/>
<path d="M8.56636 20.3183L10.5249 21.4064C11.0327 21.6965 11.4679 21.7691 11.9032 21.624C12.2659 21.4789 12.6286 21.1887 12.8462 20.7535C13.0638 20.3183 13.2089 19.883 13.0638 19.4478C12.9913 19.0125 12.7737 18.7224 12.411 18.5048C12.2659 18.4322 12.1208 18.4322 12.0483 18.4322C11.9757 18.4322 11.9032 18.5048 11.8306 18.6498C11.6856 18.8675 11.7581 19.0125 11.9032 19.1576C11.9757 19.2302 12.0483 19.3027 12.1208 19.3027C12.1933 19.3027 12.2659 19.4478 12.3384 19.5203C12.411 19.5929 12.411 19.7379 12.411 19.883C12.411 20.0281 12.3384 20.1732 12.2659 20.3183C11.9757 20.8986 11.5405 20.9711 10.9602 20.681L9.0016 19.5929C8.42128 19.3027 8.2762 18.8675 8.56636 18.2872C8.85652 17.7794 9.21922 17.6343 9.72699 17.9245C9.87207 17.997 10.0172 17.9245 10.1622 17.7068C10.2348 17.5618 10.2348 17.4892 10.2348 17.4167C10.2348 17.3441 10.1622 17.2716 10.0172 17.1991C9.65445 16.9814 9.29176 16.9814 8.92906 17.1265C8.56636 17.2716 8.2762 17.5618 7.98604 18.0695C7.62334 18.5048 7.5508 18.94 7.62334 19.3027C7.76842 19.7379 8.05858 20.1006 8.56636 20.3183Z" fill="#2B1708"/>
<path d="M13.499 18.5048C13.6441 18.5773 13.7167 18.5773 13.8617 18.5773C14.0068 18.5048 14.0794 18.4322 14.1519 18.3597C14.2244 18.2146 14.2244 18.1421 14.1519 17.997L13.4265 17.1265L14.5146 15.6032L15.6027 15.9659C15.7478 15.9659 15.8203 15.9659 15.8928 15.8208C15.9654 15.7483 16.0379 15.6032 16.0379 15.4581C16.0379 15.313 16.0379 15.2405 15.9654 15.168C15.9654 15.168 15.9654 15.168 15.8928 15.168L11.0327 13.427C10.8876 13.3545 10.67 13.4996 10.5249 13.7172C10.3798 13.9348 10.3073 14.1524 10.4524 14.2975L13.499 18.5048ZM13.9343 15.3856L13.0638 16.6188L11.3954 14.4426L13.9343 15.3856Z" fill="#2B1708"/>
<path d="M12.411 12.0488C12.4835 12.1213 12.556 12.1938 12.6286 12.1938C12.7011 12.1938 12.7737 12.1938 12.8462 12.1213L13.6441 11.2508L16.9809 14.37C17.0535 14.4426 17.126 14.4426 17.1986 14.4426C17.2711 14.4426 17.3436 14.37 17.4162 14.2975C17.4887 14.2249 17.5613 14.1524 17.5613 14.0073C17.5613 13.9348 17.5613 13.8622 17.4887 13.7897L14.1519 10.6705L14.9498 9.80003C15.0224 9.72749 15.0224 9.65495 15.0224 9.58241C15.0224 9.50987 14.9498 9.43733 14.8773 9.36479C14.8048 9.29225 14.7322 9.29225 14.6597 9.21972C14.5871 9.21972 14.5146 9.21972 14.4421 9.29225L12.2659 11.6135C12.1933 11.6861 12.1933 11.7586 12.1933 11.8311C12.2659 11.9037 12.3384 11.9762 12.411 12.0488Z" fill="#2B1708"/>
<path d="M35.1884 15.8933C35.2609 16.111 35.406 16.256 35.6236 16.256H35.6962C35.9863 16.1835 36.1314 15.9659 36.0589 15.6757L35.7687 14.37C35.6962 14.0799 35.4785 13.9348 35.1884 14.0073C34.8982 14.0799 34.7531 14.2975 34.8257 14.5876L35.1884 15.8933Z" fill="#2B1708"/>
<path d="M36.5667 16.4011C36.6392 16.6188 36.7843 16.7638 37.0019 16.7638C37.0744 16.7638 37.0744 16.7638 37.147 16.7638C37.3646 16.6913 37.5822 16.4737 37.5097 16.1835L36.9294 13.9348C36.8568 13.7172 36.6392 13.4995 36.349 13.5721C36.1314 13.6446 35.9138 13.8622 35.9863 14.1524L36.5667 16.4011Z" fill="#2B1708"/>
<path d="M34.8982 17.1991C32.4319 16.4737 31.779 16.4737 31.634 17.7794C31.4889 18.8675 33.3024 20.826 34.9708 20.826C36.6392 20.826 37.7998 19.9556 37.7998 18.7949C37.7273 17.7068 36.8568 17.7794 34.8982 17.1991ZM35.1159 20.4633C34.5356 20.4633 34.1003 19.9556 34.1003 19.3027C34.1003 18.6498 34.5356 18.1421 35.1159 18.1421C35.6962 18.1421 36.1314 18.6498 36.1314 19.3027C36.1314 19.9556 35.6962 20.4633 35.1159 20.4633Z" fill="#2B1708"/>
<path d="M36.6392 22.1317C36.5666 21.9141 36.2765 21.7691 36.0589 21.8416L32.2868 23.0022C32.0692 23.0748 31.9241 23.3649 31.9967 23.5825C32.0692 23.8002 32.2143 23.9452 32.4319 23.9452C32.5044 23.9452 32.5044 23.9452 32.577 23.9452L36.2765 22.7846C36.5666 22.6395 36.7117 22.3494 36.6392 22.1317Z" fill="#2B1708"/>
<path d="M36.1314 22.7846L34.0278 24.1629C33.8102 24.3079 33.7376 24.5981 33.8827 24.8157C33.9552 24.9608 34.1003 25.0333 34.2454 25.0333C34.3179 25.0333 34.3905 25.0333 34.5355 24.9608L36.6392 23.5825C36.8568 23.4375 36.9294 23.1473 36.7843 22.9297C36.6392 22.6395 36.349 22.6395 36.1314 22.7846Z" fill="#2B1708"/>
<path d="M32.7946 14.8778C33.8827 14.8052 34.2454 14.1524 34.2454 13.4995C34.2454 12.8467 33.2298 10.8156 32.5044 10.8881C31.8516 10.8881 31.8516 12.1938 31.9241 12.8467C32.0692 14.37 32.0692 14.8778 32.7946 14.8778Z" fill="#2B1708"/>
<path d="M43.1678 16.256H43.2403C43.4579 16.256 43.6756 16.111 43.6756 15.8933L43.9657 14.5876C44.0383 14.37 43.8932 14.0799 43.603 14.0073C43.3854 13.9348 43.0952 14.0799 43.0227 14.37L42.7325 15.6757C42.7325 15.9659 42.8776 16.256 43.1678 16.256Z" fill="#2B1708"/>
<path d="M41.717 16.7638C41.7895 16.7638 41.7895 16.7638 41.8621 16.7638C42.0797 16.7638 42.2973 16.6188 42.2973 16.4011L42.8776 14.1524C42.9502 13.9348 42.8051 13.6446 42.5149 13.5721C42.2973 13.4996 42.0071 13.6446 41.9346 13.9348L41.3543 16.1835C41.2817 16.4011 41.4994 16.6913 41.717 16.7638Z" fill="#2B1708"/>
<path d="M43.9657 17.1991C42.0071 17.7794 41.1367 17.7068 41.1367 18.8675C41.1367 19.9556 42.2973 20.8986 43.9657 20.8986C45.6341 20.8986 47.4476 19.0126 47.3025 17.8519C47.1574 16.4737 46.4321 16.4737 43.9657 17.1991ZM43.7481 20.4634C43.1678 20.4634 42.7325 19.9556 42.7325 19.3027C42.7325 18.6499 43.1678 18.1421 43.7481 18.1421C44.3284 18.1421 44.7636 18.6499 44.7636 19.3027C44.7636 19.9556 44.2559 20.4634 43.7481 20.4634Z" fill="#2B1708"/>
<path d="M39.4683 20.7535C38.7429 20.7535 37.6548 20.681 37.6548 21.4064C37.6548 22.0592 38.6703 22.9297 39.4683 22.9297C40.1937 22.9297 41.2817 22.0592 41.2817 21.4064C41.2092 20.6084 40.1937 20.7535 39.4683 20.7535Z" fill="#2B1708"/>
<path d="M46.5771 23.0022L42.8776 21.8416C42.66 21.7691 42.3698 21.9141 42.2973 22.1317C42.2247 22.3494 42.3698 22.6395 42.5874 22.7121L46.287 23.8727C46.3595 23.8727 46.3595 23.8727 46.432 23.8727C46.6497 23.8727 46.7947 23.7276 46.8673 23.51C46.9398 23.2924 46.7947 23.0748 46.5771 23.0022Z" fill="#2B1708"/>
<path d="M42.7325 22.7846C42.5149 22.6395 42.2247 22.7121 42.0797 22.9297C41.9346 23.1473 42.0071 23.4375 42.2247 23.5826L44.3284 24.9608C44.4009 25.0334 44.4735 25.0334 44.6185 25.0334C44.7636 25.0334 44.9087 24.9608 44.9812 24.8157C45.1263 24.5981 45.0538 24.308 44.8362 24.1629L42.7325 22.7846Z" fill="#2B1708"/>
<path d="M46.0693 14.8778C46.8673 14.9503 46.7947 14.37 46.9398 12.8467C47.0124 12.1938 47.0124 10.8881 46.3595 10.8881C45.7066 10.8881 44.6186 12.9192 44.6186 13.4995C44.6186 14.1524 44.9087 14.8053 46.0693 14.8778Z" fill="#2B1708"/>
<path d="M44.7636 44.9092L47.3025 46.2875V48.7538C47.3025 49.1165 47.5927 49.4067 47.9554 49.4067C48.3181 49.4067 48.6082 49.1165 48.6082 48.7538V46.2875L51.1471 44.9092C51.3647 44.8367 51.5098 44.5465 51.5098 44.3289V33.4479C51.5098 33.0852 51.2196 32.7951 50.8569 32.7951C50.4942 32.7951 50.2041 33.0852 50.2041 33.4479V34.1733L48.6082 35.0438V32.3599C48.6082 31.9972 48.3181 31.707 47.9554 31.707C47.5927 31.707 47.3025 31.9972 47.3025 32.3599V35.0438L45.7066 34.1733V33.4479C45.7066 33.0852 45.4165 32.7951 45.0538 32.7951C44.6911 32.7951 44.4009 33.0852 44.4009 33.4479V44.3289C44.3284 44.5465 44.546 44.7641 44.7636 44.9092ZM45.7066 39.0335L47.3025 39.904V41.4998L45.7066 40.6294V39.0335ZM50.2766 40.5568L48.6808 41.4273V39.8314L50.2766 38.961V40.5568ZM45.7066 42.2252L47.3025 43.0957V44.7641L45.7066 43.8937V42.2252ZM48.6082 44.7641V43.0957L50.2041 42.2252V43.8937L48.6082 44.7641ZM50.2766 37.3651L48.6808 38.2356V36.5672L50.2766 35.6967V37.3651ZM47.3025 36.5672V38.2356L45.7066 37.3651V35.6967L47.3025 36.5672Z" fill="#2B1708"/>
<path d="M26.266 35.4791C26.4111 35.4791 26.6287 35.6241 26.8463 35.7692C27.209 35.9868 27.6443 36.277 28.1521 36.277C28.6598 36.277 29.0225 36.0594 29.4578 35.7692C29.6754 35.6241 29.893 35.4791 30.0381 35.4791C30.1832 35.4791 30.4008 35.6241 30.6184 35.7692C30.9811 35.9868 31.4163 36.277 31.9241 36.277C32.4319 36.277 32.7946 36.0594 33.2298 35.7692C33.4474 35.6241 33.6651 35.4791 33.8101 35.4791C33.9552 35.4791 34.1728 35.6241 34.3905 35.7692C34.7532 35.9868 35.1884 36.277 35.6962 36.277C36.0589 36.277 36.349 35.9868 36.349 35.6241C36.349 35.2614 36.0589 34.9713 35.6962 34.9713C35.5511 34.9713 35.3335 34.8262 35.1159 34.6811C34.7532 34.4635 34.3179 34.1733 33.8101 34.1733C33.3024 34.1733 32.9397 34.391 32.5044 34.6811C32.2868 34.8262 32.0692 34.9713 31.9241 34.9713C31.779 34.9713 31.5614 34.8262 31.3438 34.6811C30.9811 34.4635 30.5459 34.1733 30.0381 34.1733C29.5303 34.1733 29.1676 34.391 28.7324 34.6811C28.5147 34.8262 28.2971 34.9713 28.1521 34.9713C28.007 34.9713 27.7894 34.8262 27.5717 34.6811C27.209 34.4635 26.7738 34.1733 26.266 34.1733C25.9033 34.1733 25.6132 34.4635 25.6132 34.8262C25.6132 35.1164 25.9033 35.4791 26.266 35.4791Z" fill="#2B1708"/>
<path d="M26.266 38.163C26.4111 38.163 26.6287 38.3081 26.8463 38.4532C27.209 38.6708 27.6443 38.9609 28.1521 38.9609C28.6598 38.9609 29.0225 38.7433 29.4578 38.4532C29.6754 38.3081 29.893 38.163 30.0381 38.163C30.1832 38.163 30.4008 38.3081 30.6184 38.4532C30.9811 38.6708 31.4163 38.9609 31.9241 38.9609C32.4319 38.9609 32.7946 38.7433 33.2298 38.4532C33.4474 38.3081 33.6651 38.163 33.8101 38.163C33.9552 38.163 34.1728 38.3081 34.3905 38.4532C34.7532 38.6708 35.1884 38.9609 35.6962 38.9609C36.0589 38.9609 36.349 38.6708 36.349 38.3081C36.349 37.9454 36.0589 37.6552 35.6962 37.6552C35.5511 37.6552 35.3335 37.5101 35.1159 37.3651C34.7532 37.1474 34.3179 36.8573 33.8101 36.8573C33.3024 36.8573 32.9397 37.0749 32.5044 37.3651C32.2868 37.5101 32.0692 37.6552 31.9241 37.6552C31.779 37.6552 31.5614 37.5101 31.3438 37.3651C30.9811 37.1474 30.5459 36.8573 30.0381 36.8573C29.5303 36.8573 29.1676 37.0749 28.7324 37.3651C28.5147 37.5101 28.2971 37.6552 28.1521 37.6552C28.007 37.6552 27.7894 37.5101 27.5717 37.3651C27.209 37.1474 26.7738 36.8573 26.266 36.8573C25.9033 36.8573 25.6132 37.1475 25.6132 37.5101C25.6132 37.8728 25.9033 38.163 26.266 38.163Z" fill="#2B1708"/>
<path d="M26.266 40.847C26.4111 40.847 26.6287 40.9921 26.8464 41.1371C27.2091 41.3548 27.6443 41.6449 28.1521 41.6449C28.6598 41.6449 29.0225 41.4273 29.4578 41.1371C29.6754 40.9921 29.893 40.847 30.0381 40.847C30.1832 40.847 30.4008 40.9921 30.6184 41.1371C30.9811 41.3548 31.4164 41.6449 31.9241 41.6449C32.4319 41.6449 32.7946 41.4273 33.2298 41.1371C33.4475 40.9921 33.6651 40.847 33.8102 40.847C33.9552 40.847 34.1729 40.9921 34.3905 41.1371C34.7532 41.3548 35.1884 41.6449 35.6962 41.6449C36.0589 41.6449 36.349 41.3548 36.349 40.9921C36.349 40.6294 36.0589 40.3392 35.6962 40.3392C35.5511 40.3392 35.3335 40.1941 35.1159 40.049C34.6806 39.7589 34.2454 39.5413 33.7376 39.5413C33.2298 39.5413 32.8671 39.7589 32.4319 40.049C32.2143 40.1941 31.9967 40.3392 31.8516 40.3392C31.7065 40.3392 31.4889 40.1941 31.2713 40.049C30.9086 39.8314 30.4733 39.5413 29.9656 39.5413C29.4578 39.5413 29.0951 39.7589 28.6598 40.049C28.4422 40.1941 28.2246 40.3392 28.0795 40.3392C27.9344 40.3392 27.7168 40.1941 27.4992 40.049C27.1365 39.8314 26.7013 39.5413 26.1935 39.5413C25.8308 39.5413 25.5406 39.8314 25.5406 40.1941C25.5406 40.5568 25.9033 40.847 26.266 40.847Z" fill="#2B1708"/>
<path d="M26.266 43.531C26.4111 43.531 26.6287 43.676 26.8463 43.8211C27.209 44.0387 27.6443 44.3289 28.1521 44.3289C28.6598 44.3289 29.0225 44.1113 29.4578 43.8211C29.6754 43.676 29.893 43.531 30.0381 43.531C30.1832 43.531 30.4008 43.676 30.6184 43.8211C30.9811 44.0387 31.4163 44.3289 31.9241 44.3289C32.4319 44.3289 32.7946 44.1113 33.2298 43.8211C33.4474 43.676 33.6651 43.531 33.8101 43.531C33.9552 43.531 34.1728 43.676 34.3905 43.8211C34.7532 44.0387 35.1884 44.3289 35.6962 44.3289C36.0589 44.3289 36.349 44.0387 36.349 43.676C36.349 43.3133 36.0589 43.0232 35.6962 43.0232C35.5511 43.0232 35.3335 42.8781 35.1159 42.733C34.7532 42.5154 34.3179 42.2252 33.8101 42.2252C33.3024 42.2252 32.9397 42.4429 32.5044 42.733C32.2868 42.8781 32.0692 43.0232 31.9241 43.0232C31.779 43.0232 31.5614 42.8781 31.3438 42.733C30.9811 42.5154 30.5459 42.2252 30.0381 42.2252C29.5303 42.2252 29.1676 42.4429 28.7324 42.733C28.5147 42.8781 28.2971 43.0232 28.1521 43.0232C28.007 43.0232 27.7894 42.8781 27.5717 42.733C27.209 42.5154 26.7738 42.2252 26.266 42.2252C25.9033 42.2252 25.6132 42.5154 25.6132 42.8781C25.6132 43.2408 25.9033 43.531 26.266 43.531Z" fill="#2B1708"/>
<path d="M26.266 46.2149C26.4111 46.2149 26.6287 46.36 26.8463 46.5051C27.209 46.7227 27.6443 47.0128 28.1521 47.0128C28.6598 47.0128 29.0225 46.7952 29.4578 46.5051C29.6754 46.36 29.893 46.2149 30.0381 46.2149C30.1832 46.2149 30.4008 46.36 30.6184 46.5051C30.9811 46.7227 31.4163 47.0128 31.9241 47.0128C32.4319 47.0128 32.7946 46.7952 33.2298 46.5051C33.4474 46.36 33.6651 46.2149 33.8101 46.2149C33.9552 46.2149 34.1728 46.36 34.3905 46.5051C34.7532 46.7227 35.1884 47.0128 35.6962 47.0128C36.0589 47.0128 36.349 46.7227 36.349 46.36C36.349 45.9973 36.0589 45.7071 35.6962 45.7071C35.5511 45.7071 35.3335 45.562 35.1159 45.417C34.7532 45.1993 34.3179 44.9092 33.8101 44.9092C33.3024 44.9092 32.9397 45.1268 32.5044 45.417C32.2868 45.562 32.0692 45.7071 31.9241 45.7071C31.779 45.7071 31.5614 45.562 31.3438 45.417C30.9811 45.1993 30.5459 44.9092 30.0381 44.9092C29.5303 44.9092 29.1676 45.1268 28.7324 45.417C28.5147 45.562 28.2971 45.7071 28.1521 45.7071C28.007 45.7071 27.7894 45.562 27.5717 45.417C27.209 45.1993 26.7738 44.9092 26.266 44.9092C25.9033 44.9092 25.6132 45.1993 25.6132 45.562C25.6132 45.9247 25.9033 46.2149 26.266 46.2149Z" fill="#2B1708"/>
<path d="M30.5459 4.21446H32.3593C32.4319 4.21446 32.4319 4.21446 32.5044 4.14192C32.5044 4.06938 32.577 4.06938 32.577 3.99684C32.577 3.92431 32.577 3.85177 32.5044 3.85177C32.5044 3.77923 32.4319 3.77923 32.3593 3.77923H30.836V2.54605H31.634C31.7065 2.54605 31.7065 2.54605 31.779 2.47351C31.779 2.40097 31.8516 2.40097 31.8516 2.32843C31.8516 2.25589 31.8516 2.18335 31.779 2.18335C31.779 2.11082 31.7065 2.11082 31.634 2.11082H30.836V1.02272H32.3593C32.4319 1.02272 32.4319 1.02272 32.5044 0.950181C32.5044 0.877642 32.577 0.877642 32.577 0.805102C32.577 0.732562 32.577 0.660023 32.5044 0.660023C32.5044 0.587483 32.4319 0.587483 32.3593 0.587483H30.5459C30.4733 0.587483 30.4008 0.587483 30.4008 0.660023C30.3282 0.660023 30.3282 0.732562 30.3282 0.805102V4.14192C30.3282 4.21446 30.3282 4.21446 30.4008 4.287C30.4733 4.21446 30.4733 4.21446 30.5459 4.21446Z" fill="#2B1708"/>
<path d="M33.1573 4.0694C33.3749 4.21448 33.6651 4.28702 33.9552 4.28702C34.3179 4.28702 34.6081 4.21448 34.8257 3.99686C35.0433 3.77924 35.1159 3.56163 35.1159 3.19893C35.1159 2.98131 35.1159 2.83623 35.0433 2.69115C34.9708 2.54607 34.8983 2.47353 34.8257 2.32845C34.7532 2.25591 34.6081 2.18337 34.5356 2.11083C34.3905 2.03829 34.3179 1.96575 34.1729 1.96575C34.0278 1.89321 33.9552 1.89321 33.8827 1.82067C33.8102 1.74813 33.7376 1.74813 33.6651 1.60306C33.5925 1.53052 33.5925 1.45798 33.5925 1.3129C33.5925 1.16782 33.6651 1.02274 33.7376 0.950199C33.8827 0.877659 34.0278 0.80512 34.1729 0.80512C34.3179 0.80512 34.3905 0.80512 34.5356 0.877659C34.463 1.02274 34.5356 1.09528 34.6081 1.09528C34.6806 1.09528 34.6806 1.16782 34.7532 1.16782C34.8257 1.16782 34.8983 1.16782 34.8983 1.09528C34.9708 1.02274 34.9708 0.950199 34.9708 0.877659C34.9708 0.80512 34.9708 0.73258 34.8983 0.73258C34.8257 0.66004 34.7532 0.66004 34.6806 0.587501C34.6081 0.514961 34.463 0.514961 34.3179 0.514961C34.2454 0.514961 34.1003 0.514961 34.0278 0.514961C33.8827 0.514961 33.7376 0.514961 33.5925 0.587501C33.4475 0.587501 33.3024 0.66004 33.2298 0.73258C33.0848 0.80512 33.0122 0.877659 32.9397 1.02274C32.8671 1.16782 32.8671 1.3129 32.8671 1.45798C32.8671 1.67559 32.9397 1.89321 33.0122 2.03829C33.1573 2.18337 33.2298 2.32845 33.4475 2.40099C33.6651 2.47353 33.8102 2.54607 33.9552 2.54607C34.1003 2.61861 34.2454 2.69115 34.3905 2.83623C34.463 2.98131 34.5356 3.05385 34.5356 3.27147C34.5356 3.41655 34.463 3.56163 34.3905 3.7067C34.2454 3.77924 34.1003 3.85178 33.9552 3.85178C33.8102 3.85178 33.7376 3.85178 33.5925 3.77924C33.4475 3.7067 33.4475 3.7067 33.3749 3.63416C33.3024 3.56163 33.3024 3.56163 33.2298 3.48909C33.1573 3.41655 33.0848 3.34401 33.0122 3.34401C32.9397 3.34401 32.8671 3.34401 32.8671 3.41655C32.7946 3.48909 32.7946 3.56163 32.7946 3.63416C32.7946 3.77924 32.9397 3.92432 33.1573 4.0694Z" fill="#2B1708"/>
<path d="M35.4786 1.02274H36.2765V4.0694C36.2765 4.14194 36.2765 4.14194 36.349 4.21448C36.4216 4.21448 36.4941 4.28702 36.5667 4.28702C36.6392 4.28702 36.7117 4.28702 36.7843 4.21448C36.8568 4.21448 36.8568 4.14194 36.8568 4.0694V1.02274H37.6548C37.7273 1.02274 37.7273 1.02274 37.7998 0.950199C37.7998 0.877659 37.8724 0.80512 37.8724 0.73258C37.8724 0.66004 37.8724 0.587501 37.7998 0.587501C37.7273 0.587501 37.7273 0.514961 37.6548 0.514961H35.5511C35.4786 0.514961 35.4786 0.514961 35.406 0.587501C35.406 0.66004 35.3335 0.66004 35.3335 0.73258C35.3335 0.80512 35.3335 0.877659 35.406 0.877659C35.406 0.950199 35.4786 1.02274 35.4786 1.02274Z" fill="#2B1708"/>
<path d="M37.8724 4.14193C37.9449 4.21447 38.0174 4.21447 38.09 4.21447C38.1625 4.21447 38.2351 4.21447 38.3076 4.14193C38.3801 4.06939 38.3801 3.99685 38.3801 3.92431C38.3801 3.85177 38.3801 3.77923 38.3076 3.7067C38.2351 3.63416 38.1625 3.63416 38.09 3.63416C38.0174 3.63416 37.9449 3.63416 37.8724 3.7067C37.7998 3.77923 37.7998 3.85177 37.7998 3.92431C37.7998 4.06939 37.7998 4.14193 37.8724 4.14193Z" fill="#2B1708"/>
<path d="M39.976 4.21448H41.7895C41.862 4.21448 41.862 4.21448 41.9346 4.14194C41.9346 4.0694 42.0071 4.0694 42.0071 3.99686C42.0071 3.92432 42.0071 3.85178 41.9346 3.85178C41.9346 3.77924 41.862 3.77924 41.7895 3.77924H40.2662V3.56163C40.2662 3.48909 40.3387 3.34401 40.4112 3.27147C40.5563 3.12639 40.6289 3.05385 40.8465 2.90877C40.9916 2.76369 41.1366 2.69115 41.3543 2.54607C41.4993 2.40099 41.6444 2.25591 41.7895 2.11083C41.9346 1.96575 41.9346 1.74813 41.9346 1.53052C41.9346 1.24036 41.862 1.02274 41.6444 0.80512C41.4268 0.587501 41.2092 0.514961 40.8465 0.514961C40.5563 0.514961 40.3387 0.587501 40.1211 0.73258C39.9035 0.877659 39.8309 1.09528 39.8309 1.38544C39.8309 1.60306 39.9035 1.67559 40.0486 1.67559C40.1211 1.67559 40.1936 1.67559 40.2662 1.60306C40.3387 1.53052 40.3387 1.53052 40.3387 1.45798C40.3387 1.3129 40.4112 1.16782 40.4838 1.09528C40.5563 1.02274 40.7014 0.950199 40.8465 0.950199C40.9916 0.950199 41.1366 1.02274 41.2817 1.09528C41.3543 1.16782 41.4268 1.3129 41.4268 1.45798C41.4268 1.60306 41.3543 1.74813 41.2817 1.89321C41.1366 2.03829 41.0641 2.18337 40.8465 2.25591L40.3387 2.61861C40.1936 2.76369 40.0485 2.83623 39.9035 2.98131C39.7584 3.12639 39.7584 3.27147 39.7584 3.41655V3.92432C39.7584 3.99686 39.7584 3.99686 39.8309 4.0694C39.8309 4.21448 39.9035 4.21448 39.976 4.21448Z" fill="#2B1708"/>
<path d="M43.4579 4.28702C43.8206 4.28702 44.1108 4.21448 44.3284 3.99686C44.546 3.77924 44.6185 3.48909 44.6185 3.12639V1.67559C44.6185 1.3129 44.546 1.02274 44.3284 0.80512C44.1108 0.587501 43.8206 0.514961 43.4579 0.514961C43.0952 0.514961 42.8051 0.587501 42.5874 0.80512C42.3698 1.02274 42.2973 1.24036 42.2973 1.67559V3.12639C42.2973 3.48909 42.3698 3.77924 42.5874 3.99686C42.8776 4.14194 43.1678 4.28702 43.4579 4.28702ZM42.8776 1.67559C42.8776 1.24036 43.0952 1.02274 43.4579 1.02274C43.6755 1.02274 43.8206 1.09528 43.8931 1.16782C43.9657 1.24036 44.0382 1.45798 44.0382 1.67559V3.12639C44.0382 3.34401 43.9657 3.48909 43.8931 3.63416C43.8206 3.7067 43.603 3.77924 43.4579 3.77924C43.0227 3.77924 42.8776 3.56162 42.8776 3.12639V1.67559Z" fill="#2B1708"/>
<path d="M45.1263 1.53051C45.1989 1.53051 45.1989 1.53051 45.2714 1.45797L45.4165 1.24035V4.0694C45.4165 4.14194 45.4165 4.14194 45.489 4.21448C45.5616 4.21448 45.6341 4.28702 45.7066 4.28702C45.7792 4.28702 45.8517 4.28702 45.9243 4.21448C45.9968 4.21448 45.9968 4.14194 45.9968 4.0694V0.660036C45.9968 0.587496 45.9968 0.587496 45.9243 0.514957C45.8517 0.514957 45.8517 0.442417 45.7792 0.442417C45.7066 0.442417 45.7066 0.442417 45.6341 0.514957L45.0538 1.09527C44.9813 1.16781 44.9813 1.24035 44.9813 1.31289C44.9813 1.38543 44.9813 1.38543 45.0538 1.45797C44.9813 1.45797 45.0538 1.53051 45.1263 1.53051Z" fill="#2B1708"/>
<path d="M47.5927 4.28702C47.9554 4.28702 48.2455 4.21448 48.3906 3.99686C48.6082 3.85178 48.6808 3.56163 48.6808 3.19893V3.12639C48.6808 2.61861 48.4632 2.32845 48.1005 2.18337C48.3906 2.03829 48.6082 1.82067 48.6082 1.38544C48.6082 1.09528 48.5357 0.877659 48.3181 0.73258C48.1005 0.587501 47.8828 0.514961 47.5927 0.514961C47.3025 0.514961 47.0124 0.587501 46.8673 0.73258C46.6497 0.877659 46.5771 1.09528 46.5771 1.38544C46.5771 1.82067 46.7222 2.03829 47.0124 2.18337C46.6497 2.32845 46.432 2.61861 46.432 3.12639V3.19893C46.432 3.56163 46.5046 3.85178 46.7222 3.99686C46.9398 4.14194 47.23 4.28702 47.5927 4.28702ZM47.5927 0.950199C47.9554 0.950199 48.1005 1.09528 48.1005 1.45798C48.1005 1.82067 47.9554 1.96575 47.5927 1.96575C47.23 1.96575 47.0849 1.82067 47.0849 1.45798C47.0849 1.16782 47.23 0.950199 47.5927 0.950199ZM46.9398 3.05385C46.9398 2.61861 47.1574 2.40099 47.5201 2.40099C47.9554 2.40099 48.1005 2.61861 48.1005 3.05385V3.12639C48.1005 3.56162 47.8828 3.77924 47.5201 3.77924C47.3025 3.77924 47.1574 3.7067 47.0849 3.63416C47.0124 3.56163 46.9398 3.34401 46.9398 3.12639V3.05385Z" fill="#2B1708"/>
<path d="M29.3127 67.5416C29.3852 67.5416 29.5303 67.6141 29.6028 67.6141C29.893 67.6866 30.2557 67.6866 30.5458 67.6866C30.6184 67.6866 30.6909 67.6866 30.6909 67.6866C30.7635 67.6866 30.836 67.6866 30.836 67.6866C30.9085 67.6866 30.9811 67.6866 30.9811 67.6866C31.0536 67.6866 31.1262 67.6866 31.1262 67.6866C31.4163 67.6866 31.779 67.6866 32.0692 67.6141C32.1417 67.6141 32.2868 67.5416 32.3593 67.5416C34.463 67.0338 36.2039 65.1478 36.8568 62.7539L37.0019 62.1736L36.4216 62.1011C36.2765 62.0286 36.0589 62.0286 35.7687 62.0286C35.8412 60.9405 35.7687 59.8524 35.4785 58.8368L35.3335 58.329L34.7531 58.4016C34.1728 58.5467 33.5925 58.7643 33.0847 59.0544C32.722 57.8938 32.1417 56.8782 31.3438 56.0078L30.9811 55.5725L30.6184 56.0078C29.8205 56.8782 29.2401 57.8938 28.8774 59.0544C28.3697 58.7643 27.7893 58.5467 27.209 58.4016L26.7013 58.2565L26.4836 58.8368C26.1935 59.8524 26.1209 60.9405 26.1935 62.0286C25.9033 62.0286 25.6132 62.0286 25.323 62.1011L24.7427 62.1736L24.8878 62.7539C25.5406 65.1478 27.209 67.0338 29.3127 67.5416ZM30.9811 62.6089C30.7635 62.6089 30.5458 62.8265 30.5458 63.1166V64.0597C30.4008 63.842 30.1832 63.697 29.9655 63.4793C30.1106 62.4638 30.4733 61.5208 30.9811 60.7228C31.4889 61.5208 31.8516 62.4638 31.9966 63.4793C31.779 63.6244 31.6339 63.842 31.4163 64.0597V63.1166C31.4163 62.899 31.1987 62.6089 30.9811 62.6089ZM35.7687 63.0441C35.1158 64.7851 33.8101 66.0908 32.2868 66.4535C32.2143 66.4535 32.1417 66.526 32.0692 66.526C31.779 66.5985 31.4889 66.5985 31.1262 66.5985C31.2712 66.1633 31.4889 65.7281 31.7065 65.3654C32.0692 64.7851 32.577 64.2773 33.0847 63.842C33.9552 63.3343 34.8257 63.0441 35.7687 63.0441ZM32.4319 61.013C33.0122 60.3601 33.7376 59.9249 34.5355 59.6347C34.6806 60.4327 34.7531 61.3032 34.6806 62.1011C34.3179 62.1736 33.9552 62.2462 33.5925 62.3912L34.1728 61.2306C34.3179 61.013 34.2454 60.7228 34.0278 60.5778C33.9552 60.5052 33.8101 60.5052 33.6651 60.5052C33.52 60.5052 33.4474 60.6503 33.3749 60.7228L32.722 62.0286C32.6495 61.7384 32.5044 61.3757 32.4319 61.013ZM30.9811 57.2409C31.5614 57.9663 31.9966 58.8368 32.2143 59.7798C32.0692 59.9249 31.9241 59.9974 31.8516 60.1425C31.7065 59.9249 31.5614 59.7798 31.4163 59.5622V58.5466C31.4163 58.2565 31.1987 58.0389 30.9811 58.0389C30.7635 58.0389 30.5458 58.2565 30.5458 58.5466V59.5622C30.4008 59.7798 30.2557 59.9249 30.1106 60.1425C29.9655 59.9974 29.8205 59.9249 29.7479 59.7798C29.9655 58.8368 30.4008 57.9663 30.9811 57.2409ZM27.3541 59.6347C28.152 59.9249 28.8774 60.4327 29.4578 61.013L29.5303 61.0855C29.3852 61.3757 29.2401 61.7384 29.1676 62.1011L28.5147 60.7954C28.4422 60.6503 28.3697 60.5778 28.2246 60.5778C28.0795 60.5778 28.007 60.5778 27.8619 60.6503C27.6443 60.7954 27.5717 61.0855 27.7168 61.3032L28.2971 62.4638C27.9344 62.3187 27.5717 62.2462 27.209 62.1736C27.1365 61.3032 27.209 60.4327 27.3541 59.6347ZM28.7324 63.9146C29.3127 64.2773 29.7479 64.7851 30.1106 65.4379C30.1832 65.5105 30.2557 65.6555 30.2557 65.7281C30.1106 66.0182 30.0381 66.3084 29.9655 66.5985C29.893 66.5985 29.8205 66.5985 29.8205 66.5985C29.7479 66.5985 29.6754 66.5985 29.6028 66.526C28.007 66.1633 26.7738 64.8576 26.1209 63.1166C27.0639 63.0441 27.9344 63.3343 28.7324 63.9146Z" fill="#2B1708"/>
<path d="M47.9554 68.1219C48.0279 68.1219 48.1005 68.1219 48.173 68.0493C48.5357 67.8317 48.8259 67.6141 49.1886 67.3965C51.5098 65.8731 54.1212 64.1322 54.1212 61.0855C54.1212 60.3601 53.9762 59.7798 53.7585 59.272C53.4684 58.6917 53.1057 58.2565 52.6705 57.8938C52.3078 57.6036 51.8725 57.386 51.5098 57.3135C51.2197 57.2409 50.9295 57.1684 50.6393 57.1684C50.2766 57.1684 49.9865 57.2409 49.6963 57.3135C49.116 57.5311 48.6082 57.8938 48.2455 58.4016C48.173 58.4741 48.173 58.5466 48.1005 58.6192C48.0279 58.5466 48.0279 58.4741 47.9554 58.4016C47.5927 57.8938 47.0849 57.5311 46.5046 57.3135C46.2144 57.2409 45.8517 57.1684 45.5616 57.1684C45.2714 57.1684 44.9813 57.2409 44.6911 57.3135C44.2559 57.4586 43.8932 57.6036 43.5305 57.8938C43.0952 58.2565 42.7325 58.6917 42.4424 59.272C42.2247 59.7798 42.0797 60.4327 42.0797 61.0855C42.0797 64.1322 44.6911 65.8731 47.0124 67.3965C47.3751 67.6141 47.6652 67.8317 48.0279 68.0493C47.8103 68.1219 47.8828 68.1219 47.9554 68.1219ZM43.1678 61.0855C43.1678 60.5778 43.2403 60.1425 43.4579 59.7798C43.603 59.4171 43.8206 59.127 44.1108 58.9093C44.3284 58.7643 44.6186 58.6192 44.8362 58.5466C44.9813 58.4741 45.1989 58.4741 45.344 58.4741C45.5616 58.4741 45.7066 58.4741 45.9243 58.5466C46.287 58.6917 46.5046 58.8368 46.7222 59.127C46.7222 59.1995 46.7947 59.1995 46.7947 59.272C47.0124 59.7073 47.4476 59.9249 47.9554 59.9249C48.3906 59.9249 48.8258 59.7073 49.116 59.272C49.116 59.1995 49.1886 59.1995 49.1886 59.127C49.4062 58.8368 49.6963 58.6192 49.9865 58.5466C50.1316 58.4741 50.3492 58.4741 50.5668 58.4741C50.7119 58.4741 50.9295 58.4741 51.0746 58.5466C51.3647 58.6192 51.5824 58.7643 51.8 58.9093C52.0901 59.127 52.3078 59.4171 52.4528 59.7798C52.5979 60.1425 52.743 60.5778 52.743 61.0855C52.743 63.4068 50.5668 64.8576 48.3906 66.3084C48.2455 66.3809 48.1005 66.526 47.9554 66.5985C47.8103 66.526 47.6652 66.3809 47.5201 66.3084C45.4165 64.9301 43.1678 63.4068 43.1678 61.0855Z" fill="#2B1708"/>
<path d="M45.1989 59.1995C44.9812 59.272 44.7636 59.3446 44.546 59.4897C44.3284 59.7073 44.1108 59.9249 43.9657 60.2151C43.8206 60.5052 43.7481 60.8679 43.7481 61.3032C43.7481 61.8109 43.8931 62.3187 44.1108 62.8265C44.1833 62.9716 44.3284 63.0441 44.546 63.0441C44.6185 63.0441 44.6911 63.0441 44.7636 62.9716C44.9812 62.8265 45.0538 62.5363 44.9812 62.3187C44.7636 61.956 44.6911 61.6659 44.6911 61.3032C44.6911 61.013 44.7636 60.7954 44.8362 60.6503C44.9087 60.5052 44.9812 60.3601 45.1263 60.2876C45.1989 60.2151 45.3439 60.1425 45.4165 60.1425C45.7066 60.07 45.8517 59.7798 45.7792 59.5622C45.7792 59.272 45.489 59.127 45.1989 59.1995Z" fill="#2B1708"/>
<path d="M78.4946 35.1164C78.4946 20.9711 70.8054 7.91399 58.4736 0.95019L57.313 0.369873L58.1835 8.05907L51.2922 10.8881L52.4528 11.541C61.085 16.3286 66.3804 25.396 66.3804 35.1164C66.3804 41.8625 63.8416 48.0284 59.7068 52.816V44.2563C59.7068 43.1682 59.7793 42.0802 59.7793 40.9921C60.94 40.6294 61.5928 38.7433 61.7379 37.0749C61.883 36.0594 61.8104 35.1163 61.6654 34.3184C61.4477 33.4479 61.085 33.0127 60.7223 32.7951C60.94 31.707 61.1576 30.5464 61.4477 29.4583L62.2457 26.194L62.4633 25.396H53.2508C51.8 21.624 49.1885 13.6446 49.116 12.8467C49.116 12.7741 49.116 12.5565 49.116 12.3389C49.1885 11.1057 49.3336 8.85701 48.9709 7.62383C48.7533 6.8259 48.0279 6.39066 47.5201 6.39066C46.2144 6.31812 44.0382 8.92955 43.3128 9.72748C41.6444 9.21971 37.147 9.21971 35.4786 9.72748C34.8257 8.85701 32.6495 6.31812 31.2713 6.39066C30.836 6.39066 30.1106 6.8259 29.893 7.62383C29.4578 8.85701 29.6029 11.1057 29.7479 12.3389C29.7479 12.5565 29.7479 12.7741 29.7479 12.8467C29.6754 13.6446 27.064 21.624 25.6132 25.396H16.3281L16.5457 26.194L17.3437 29.4583C17.6338 30.5464 17.8514 31.707 18.0691 32.7951C17.0535 33.4479 16.8359 35.4065 17.0535 37.0749C17.1986 38.0905 17.4162 39.0335 17.7789 39.6863C18.2141 40.4843 18.6494 40.847 19.0121 40.9195C19.0846 42.0076 19.0846 43.0957 19.0846 44.1838V52.7435C14.9498 48.0284 12.411 41.79 12.411 35.0438C12.411 25.251 17.7064 16.256 26.266 11.4684L27.4267 10.8156L20.6805 8.05907L21.551 0.369873L20.3903 1.02273C8.05858 7.91399 0.369385 20.9711 0.369385 35.1164C0.369385 49.9144 8.6389 62.8265 20.753 69.4276C21.1157 69.9354 21.4784 70.4431 21.9137 70.9509C23.8722 73.1996 26.9914 75.3033 29.6029 76.6815C32.2143 78.0598 35.7687 79.3655 38.6703 80.0184L39.2506 80.1635H39.5408L40.1211 80.0184C43.0227 79.293 46.5046 78.1323 49.1886 76.6815C51.8 75.2308 54.9192 73.1996 56.8778 70.9509C57.313 70.4431 57.6757 69.9354 58.0384 69.4276C70.225 62.8265 78.4946 49.9144 78.4946 35.1164ZM60.5047 36.9298C60.2871 38.8159 59.6343 39.8314 59.3441 39.7589C57.7482 39.5413 56.5876 38.0905 56.8052 36.4946C56.8778 35.6967 57.313 35.0438 57.8933 34.536C58.4011 34.1008 59.0539 33.8832 59.7068 33.8832C59.8519 33.8832 59.9244 33.8832 60.0695 33.8832C60.2146 33.8832 60.3597 34.1733 60.5047 34.6086C60.5773 35.2614 60.6498 36.0594 60.5047 36.9298ZM56.7327 33.0852L56.2249 32.7225C55.9347 32.5049 55.4995 32.5775 55.2819 32.8676C55.0643 33.1578 55.1368 33.593 55.427 33.8106L56.2249 34.391C55.9347 34.7537 55.7171 35.1889 55.572 35.6967L54.4839 35.5516C54.1212 35.479 53.7585 35.7692 53.7585 36.1319C53.7585 36.4946 53.9762 36.8573 54.3389 36.8573L55.427 37.0024C55.427 37.5102 55.572 37.9454 55.7171 38.3806L54.7741 38.7433C54.4114 38.8884 54.2663 39.2511 54.4114 39.6138C54.4839 39.904 54.7741 40.049 54.9917 40.049C55.0643 40.049 55.1368 40.049 55.2093 39.9765L55.7897 39.7589C55.7171 41.2822 55.6446 42.8055 55.6446 44.3289V51.873H40.1211V29.3132H57.5306C57.2405 30.6189 56.9503 31.8521 56.7327 33.0852ZM23.1468 51.8005V44.2563C23.1468 42.733 23.0743 41.2097 23.0017 39.6863L23.5821 39.904C23.6546 39.904 23.7271 39.9765 23.7997 39.9765C24.0898 39.9765 24.3075 39.8314 24.38 39.5413C24.5251 39.1786 24.38 38.8159 24.0173 38.6708L23.0743 38.3081C23.2194 37.8729 23.3644 37.3651 23.3644 36.9298L24.4525 36.7848C24.8152 36.7122 25.1054 36.4221 25.0329 36.0594C24.9603 35.6967 24.6702 35.4065 24.3075 35.479L23.2194 35.6241C23.0743 35.1889 22.8567 34.7537 22.5665 34.3184L23.3644 33.7381C23.6546 33.5205 23.7271 33.0852 23.5095 32.7951C23.2919 32.5049 22.8567 32.4324 22.5665 32.65L22.1313 33.0852C21.9137 31.8521 21.696 30.5464 21.4059 29.3132H38.8154V51.8005H23.1468ZM23.1468 53.1062H38.8154V76.0287C36.349 75.3758 33.52 74.2877 31.634 73.2722C29.4578 72.1116 26.6287 70.2255 24.9603 68.3395C24.38 67.6141 23.9448 66.8887 23.5821 66.0908C23.2919 65.2928 23.1468 64.4224 23.1468 63.5519V53.1062ZM55.7897 53.1062V63.5519C55.7897 64.4949 55.6446 65.2928 55.3544 66.0908C55.0643 66.8887 54.629 67.6141 53.9762 68.3395L53.8311 68.4846C52.4528 70.0079 50.2041 71.6763 47.23 73.2722C45.4165 74.2877 42.7325 75.3033 40.0486 75.9562V53.1062H55.7897ZM28.007 22.3494L30.1832 23.4375C30.2557 23.51 30.4008 23.51 30.4733 23.51C30.6909 23.51 30.9811 23.3649 31.0536 23.1473C31.1987 22.7846 31.0536 22.4219 30.7635 22.2768L28.4422 21.1162C28.5148 20.9711 28.5148 20.8986 28.5873 20.7535L29.7479 21.3338C29.8205 21.4064 29.9656 21.4064 30.0381 21.4064C30.2557 21.4064 30.5459 21.2613 30.6184 21.0437C30.7635 20.681 30.6184 20.3183 30.3282 20.1732L28.95 19.5203C30.0381 16.256 30.9086 13.2094 30.9086 12.9192C30.9086 12.8467 30.9086 12.6291 30.9086 12.3389C30.836 11.3959 30.6909 9.14717 31.0536 8.13161C31.1262 7.84145 31.4163 7.69637 31.4163 7.69637C31.8516 7.69637 33.4475 9.14717 34.6806 10.743C34.8982 11.0332 35.3335 11.1783 35.7687 11.0332C36.0589 10.8881 36.5667 10.8156 37.0744 10.743V11.8311C37.0744 12.1938 37.3646 12.484 37.7273 12.484C38.09 12.484 38.3801 12.1938 38.3801 11.8311V10.5254C38.5252 10.5254 38.5978 10.5254 38.7428 10.5254V13.0643C38.7428 13.427 39.033 13.7172 39.3957 13.7172C39.7584 13.7172 40.0486 13.427 40.0486 13.0643V10.5254C40.1936 10.5254 40.3387 10.5254 40.4113 10.5254V11.7586C40.4113 12.1213 40.7014 12.4114 41.0641 12.4114C41.4268 12.4114 41.717 12.1213 41.717 11.7586V10.6705C42.2973 10.743 42.7325 10.8156 43.0227 10.9607C43.3854 11.1057 43.8206 10.9607 44.1108 10.6705C45.3439 9.07463 46.9398 7.62383 47.3751 7.62383C47.4476 7.62383 47.6652 7.76891 47.8103 8.05907C48.173 9.07463 48.0279 11.3234 47.9554 12.2664C47.9554 12.5565 47.9554 12.7741 47.9554 12.8467C47.9554 13.1368 48.8259 16.111 49.9139 19.3753L48.4632 20.1006C48.1005 20.2457 48.0279 20.681 48.173 20.9711C48.3181 21.1887 48.5357 21.3338 48.7533 21.3338C48.8258 21.3338 48.9709 21.3338 49.0435 21.2613L50.3492 20.6084C50.4217 20.7535 50.4217 20.826 50.4943 20.9711L48.0279 22.1318C47.6652 22.2768 47.5927 22.7121 47.7378 23.0022C47.8828 23.2199 48.1005 23.3649 48.3181 23.3649C48.3906 23.3649 48.5357 23.3649 48.6082 23.2924L50.9295 22.2043C51.2922 23.2924 51.7274 24.3805 52.0176 25.3235H26.9189C27.209 24.453 27.5717 23.4375 28.007 22.3494ZM60.8674 26.7018L60.2146 29.1681C59.9244 30.3287 59.7068 31.4168 59.4892 32.5775C58.9814 32.5775 58.5462 32.7225 58.1109 32.8676C58.3285 31.4894 58.6187 30.1837 58.9814 28.8054L59.199 28.0075H19.6649L19.8825 28.8054C20.2452 30.1111 20.4629 31.4894 20.753 32.8676C20.3178 32.7225 19.81 32.5775 19.3748 32.5775C19.1571 31.4168 18.9395 30.3287 18.6494 29.1681L17.9965 26.7018H60.8674ZM18.5043 34.2459C18.5043 34.1733 18.6494 33.8832 18.7944 33.8832C18.9395 33.8832 19.0121 33.8832 19.1571 33.8832C19.81 33.8832 20.4629 34.1008 20.9706 34.536C21.6235 35.0438 21.9862 35.6967 22.0587 36.4946C22.1313 37.2925 21.9137 38.0179 21.4784 38.6708C20.9706 39.3236 20.3178 39.6863 19.5198 39.7589C19.3748 39.7589 19.2297 39.5413 19.1571 39.4687C18.3592 38.3806 17.9965 35.479 18.5043 34.2459ZM1.6751 35.1164C1.6751 21.9141 8.6389 9.5824 19.8825 2.76368L19.1571 8.85701L24.4525 11.0332C16.183 16.1835 11.1052 25.251 11.1052 35.0438C11.1052 42.6605 14.1519 49.5517 19.0846 54.702V57.8938C15.6752 54.8471 12.9187 51.0751 11.1052 46.7227C10.9602 46.36 10.5975 46.2149 10.2348 46.36C9.87208 46.5051 9.727 46.8678 9.87208 47.2305C11.9032 52.2357 15.0949 56.443 19.0846 59.7073V62.6089C15.6752 60.07 12.7011 56.9508 10.3799 53.1787C10.1622 52.8886 9.79954 52.7435 9.43684 52.9611C9.14668 53.1787 9.0016 53.5414 9.21922 53.9041C11.8306 58.0389 15.1675 61.5208 19.0846 64.2773C19.1571 65.3654 19.3748 66.3809 19.6649 67.3239C8.92906 60.6503 1.6751 48.7538 1.6751 35.1164ZM55.9347 70.0804C54.4114 71.8214 51.8725 73.7074 48.6082 75.5209C46.287 76.8266 43.0952 77.9873 39.8309 78.7852L39.3957 78.8577L38.9605 78.7852C36.0589 78.1323 32.577 76.8266 30.1832 75.5209C27.1365 73.925 24.5251 71.8939 22.8567 70.0804C22.0587 69.1374 21.4059 68.1219 21.0432 67.0338C20.6079 65.9457 20.4629 64.7851 20.4629 63.5519V44.2563C20.4629 43.1682 20.3903 42.0076 20.3903 40.9195C20.8256 40.7744 21.2608 40.5568 21.696 40.2667C21.7686 41.5724 21.8411 42.8781 21.8411 44.2563V63.5519C21.8411 64.64 21.9862 65.6555 22.3489 66.5985C22.7116 67.5416 23.2194 68.412 23.9448 69.21C25.7583 71.2411 28.7324 73.1996 30.9811 74.4328C33.2298 75.666 36.6392 76.8266 39.3232 77.4795H39.6133C42.2973 76.8266 45.5616 75.7385 47.9554 74.4328C50.3492 73.1271 53.2508 71.2411 54.9917 69.21C55.7171 68.412 56.2249 67.5416 56.5876 66.5985C56.9503 65.6555 57.0954 64.64 57.0954 63.5519V44.2563C57.0954 42.8781 57.1679 41.5724 57.2404 40.2667C57.6031 40.5568 58.0384 40.7744 58.5462 40.9195C58.4736 42.0076 58.4011 43.1682 58.4011 44.2563V63.5519C58.4011 64.7851 58.1835 65.9457 57.8208 67.0338C57.3855 68.1219 56.8052 69.21 55.9347 70.0804ZM59.1265 67.3239C59.4892 66.3809 59.6343 65.2928 59.7068 64.2773C63.5514 61.5933 66.9608 58.1114 69.5722 53.9041C69.7898 53.614 69.6447 53.1787 69.3546 52.9611C69.0644 52.7435 68.6292 52.8886 68.4116 53.1787C66.0903 56.8782 63.1162 60.07 59.7068 62.6089V59.7073C63.6239 56.443 66.8157 52.2357 68.9193 47.2305C69.0644 46.8678 68.9193 46.5051 68.5566 46.36C68.1939 46.2149 67.8312 46.36 67.6862 46.7227C65.8727 51.1476 63.1162 54.9197 59.7068 57.8938V54.7746C64.6395 49.6968 67.6862 42.733 67.6862 35.1164C67.6862 25.3235 62.6084 16.256 54.3389 11.1057L59.6343 8.92955L58.9089 2.83622C70.225 9.65494 77.1163 21.9141 77.1163 35.1889C77.1888 48.7538 69.9349 60.6503 59.1265 67.3239Z" fill="#2B1708"/>
</svg>
