<svg width="79" height="80" viewBox="0 0 79 80" fill="none" xmlns="http://www.w3.org/2000/svg">
<g opacity="0.8">
<path d="M64.403 14.1091C64.6964 13.8909 64.8431 13.6 64.8431 13.3818C64.9165 13.1636 64.8431 12.9455 64.7698 12.6545C65.2099 12.8727 65.65 12.7273 66.1634 12.2909C66.5302 11.9273 66.6769 11.6364 66.6036 11.2727C66.5302 10.9091 66.3835 10.6182 66.0167 10.2545L65.0632 9.23636C64.9898 9.16364 64.9165 9.09091 64.8431 9.09091C64.7698 9.09091 64.6964 9.09091 64.623 9.16364L60.8821 12.6545C60.8088 12.7273 60.8088 12.8 60.8088 12.8727C60.8088 12.9455 60.8821 13.0182 60.9555 13.0909L62.0557 14.2545C62.3491 14.6182 62.7159 14.7636 63.0827 14.7636C63.4494 14.7636 63.8895 14.6182 64.2563 14.2545L64.403 14.1091ZM64.8431 10.1091L65.4299 10.7636C65.7967 11.1273 65.7967 11.4909 65.4299 11.8545C65.0632 12.2182 64.6964 12.2182 64.3296 11.8545L63.6695 11.2L64.8431 10.1091ZM63.8162 13.5273L63.7428 13.6C63.3027 14.0364 62.8626 14.0364 62.4225 13.6L61.7623 12.8727L63.2294 11.4909L63.8895 12.2182C64.1096 12.4364 64.1829 12.6545 64.1829 12.8C64.1829 13.0909 64.1096 13.3091 63.8162 13.5273Z" fill="white"/>
<path d="M67.9972 17.0182C68.2906 17.0182 68.6574 16.9454 69.0241 16.6545C69.9044 16.0727 69.9777 15.2727 69.3176 14.3273L68.4373 13.0909C68.364 13.0182 68.364 13.0182 68.2906 12.9454C68.2173 12.9454 68.1439 12.9454 68.0706 13.0182L63.8895 15.9273C63.8162 16 63.8162 16.0727 63.8162 16.1454C63.8162 16.2182 63.8895 16.3636 63.8895 16.4364C63.9629 16.5091 64.0362 16.5818 64.1096 16.6545C64.1829 16.7273 64.2563 16.6545 64.3296 16.6545L66.0901 15.4182L66.5302 16.0727L65.3566 18.2545C65.2832 18.4 65.2832 18.5454 65.3566 18.6182C65.4299 18.6909 65.5033 18.7636 65.65 18.8364C65.7967 18.8364 65.87 18.8364 65.9434 18.8364L66.0167 18.7636L67.0436 16.7273C67.4104 16.8727 67.7038 16.9454 67.9972 17.0182ZM68.2173 13.9636L68.7307 14.6909C69.0975 15.2 69.0241 15.6364 68.5107 16C67.9972 16.3636 67.5571 16.2909 67.1903 15.7091L66.6769 14.9818L68.2173 13.9636Z" fill="white"/>
<path d="M67.1904 20.2182L68.8041 19.4182L69.3176 20.4364C69.3909 20.5091 69.3909 20.5818 69.4643 20.5818C69.5376 20.5818 69.611 20.5818 69.6843 20.5091C69.7577 20.4364 69.831 20.4364 69.831 20.3636C69.831 20.2909 69.831 20.2182 69.831 20.1454L69.3176 19.1273L70.858 18.3273L71.8849 20.3636C71.9582 20.4364 71.9582 20.5091 72.1049 20.5091C72.1783 20.5091 72.2516 20.5091 72.3983 20.4364C72.4717 20.3636 72.5451 20.3636 72.6184 20.2909C72.6918 20.2182 72.6918 20.1454 72.6184 20.0727L71.3714 17.6727C71.2981 17.6 71.2981 17.5273 71.2247 17.4545C71.1514 17.3818 71.078 17.3818 71.0047 17.4545L66.4568 19.7091C66.3835 19.7818 66.3101 19.7818 66.3101 19.9273C66.3101 20 66.3101 20.0727 66.3835 20.2182L67.6305 22.6182C67.7038 22.6909 67.7038 22.7636 67.8505 22.7636C67.9239 22.7636 67.9972 22.7636 68.0706 22.6909C68.1439 22.6182 68.2173 22.6182 68.2906 22.4727C68.364 22.4 68.364 22.3273 68.2906 22.2545L67.1904 20.2182Z" fill="white"/>
<path d="M74.9657 27.9273C75.039 27.9273 75.1124 27.8545 75.1124 27.7091C75.1124 27.5636 75.1124 27.4909 75.1124 27.3455C75.039 27.2 74.9657 27.1273 74.8923 27.1273H70.3445L72.7651 25.6727C72.9118 25.6 72.9852 25.4545 72.9118 25.2364C72.8385 25.0182 72.7651 24.9455 72.5451 24.9455L69.6843 25.0909L73.572 22.6909C73.6453 22.6182 73.7187 22.5455 73.6453 22.4C73.6453 22.2545 73.572 22.1818 73.4253 22.1091C73.3519 22.0364 73.2786 21.9636 73.1319 22.0364H73.0585L68.6574 24.8727C68.5841 24.9455 68.5107 25.0182 68.5107 25.0909C68.5107 25.1636 68.5107 25.3091 68.5107 25.4545C68.5107 25.6 68.5841 25.6727 68.6574 25.7455C68.7308 25.8182 68.8041 25.8909 68.8775 25.8909L71.2981 25.8182L69.3176 26.9091C69.2442 26.9818 69.1709 27.0545 69.1709 27.1273C69.1709 27.2 69.1709 27.3455 69.1709 27.4909C69.1709 27.6364 69.2442 27.7091 69.3176 27.7818C69.3909 27.8545 69.4643 27.9273 69.5376 27.9273H74.9657Z" fill="white"/>
<path d="M69.9044 30.3273C69.831 30.4 69.831 30.4727 69.831 30.6182L70.1244 33.3091C70.1244 33.3818 70.1978 33.4545 70.2711 33.5273C70.3445 33.6 70.4178 33.6 70.4912 33.6C70.5645 33.6 70.7113 33.5273 70.7113 33.5273C70.7846 33.4545 70.7846 33.3818 70.7846 33.3091L70.5645 31.0545L72.325 30.9091L72.4717 32.0727C72.4717 32.1455 72.5451 32.2182 72.6184 32.2909C72.6917 32.3636 72.7651 32.3636 72.8385 32.3636C72.9118 32.3636 72.9852 32.2909 73.0585 32.2909C73.1319 32.2182 73.1319 32.1455 73.1319 32.0727L72.9852 30.9091L74.819 30.5455L75.039 32.8C75.039 32.8727 75.1124 32.9455 75.1857 33.0182C75.2591 33.0909 75.3324 33.0909 75.4791 33.0909C75.5525 33.0909 75.6258 33.0182 75.6992 33.0182C75.7725 32.9455 75.7725 32.8727 75.7725 32.8L75.4791 30.1091C75.4791 30.0364 75.4058 29.9636 75.4058 29.8909C75.3324 29.8182 75.2591 29.8182 75.1857 29.8182L70.1244 30.3273C70.0511 30.2545 69.9777 30.2545 69.9044 30.3273Z" fill="white"/>
<path d="M75.7725 34.7636C75.6992 34.6909 75.6992 34.6909 75.6258 34.6909L70.5645 34.4727C70.4912 34.4727 70.4178 34.4727 70.3445 34.6182C70.2711 34.6909 70.2711 34.7636 70.2711 34.9091C70.2711 35.0545 70.2711 35.1273 70.3445 35.2C70.4178 35.2727 70.4178 35.3454 70.5645 35.3454L72.6917 35.4182V36.2182L70.4178 37.2364C70.2711 37.3091 70.1978 37.3818 70.1978 37.5273C70.1978 37.6727 70.1978 37.7454 70.3445 37.8909C70.4178 37.9636 70.4912 38.0364 70.6379 38.0364C70.7113 38.0364 70.7113 38.0364 70.7846 38.0364L72.8385 37.0182C72.9118 37.3818 73.0585 37.6 73.2786 37.8182C73.4986 38.0364 73.8654 38.1091 74.3055 38.1818C75.3324 38.2545 75.9192 37.6727 75.9192 36.5091L75.9926 35.0545C75.8459 34.9091 75.7725 34.8364 75.7725 34.7636ZM75.039 36.4364C75.039 37.0909 74.6723 37.3818 74.0854 37.3818C73.4986 37.3818 73.2052 37.0182 73.2052 36.3636L73.2786 35.4182L75.1124 35.4909L75.039 36.4364Z" fill="white"/>
<path d="M75.1857 39.5636C75.1857 39.5636 75.1123 39.5636 75.039 39.5636L71.8849 40.5818C71.8115 40.5818 71.8115 40.5818 71.8115 40.5818L69.9044 40.2182C69.831 40.2182 69.7577 40.2182 69.6843 40.2909C69.6109 40.3636 69.611 40.4364 69.5376 40.5818C69.5376 40.6545 69.5376 40.8 69.5376 40.8727C69.5376 40.9454 69.6109 41.0182 69.6843 41.0182L71.5914 41.3818H71.6648L74.1588 43.4909C74.1588 43.4909 74.2321 43.4909 74.2321 43.5636C74.3055 43.5636 74.3788 43.5636 74.5255 43.4182C74.5989 43.3455 74.6722 43.2 74.6722 43.1273C74.6722 42.9818 74.6722 42.9091 74.5255 42.8364L72.3983 41.1636L75.039 40.3636C75.1857 40.2909 75.259 40.2182 75.259 40.1455C75.259 40 75.259 39.9273 75.259 39.7818C75.3324 39.7091 75.259 39.6364 75.1857 39.5636Z" fill="white"/>
<path d="M9.97586 43.4182C9.97586 43.3455 9.97586 43.2 9.97586 43.1273C9.97586 42.9818 9.90251 42.9091 9.82915 42.8364C9.7558 42.7636 9.68245 42.7636 9.6091 42.7636L5.9415 43.5636L7.6286 42.1091C7.70195 42.0364 7.7753 41.8909 7.7753 41.8182C7.7753 41.6727 7.70195 41.6 7.55525 41.6L5.50139 41.0182L9.09564 40.2182C9.16899 40.2182 9.24234 40.1455 9.24234 40.0727C9.24234 40 9.24234 39.8546 9.24234 39.7818C9.24234 39.6364 9.16899 39.5636 9.09564 39.4909C9.02228 39.4182 8.94893 39.4182 8.87558 39.4182L4.03436 40.5091C3.88765 40.5091 3.8143 40.5818 3.74095 40.6546C3.6676 40.8 3.6676 40.8727 3.6676 41.0182C3.6676 41.1636 3.74095 41.2364 3.8143 41.3818C3.88765 41.5273 4.03436 41.5273 4.25441 41.6L6.45497 42.2546L4.69452 43.7091C4.54782 43.8546 4.47447 43.9273 4.40111 44.0727C4.40111 44.0727 4.40111 44.2182 4.47447 44.3636C4.47447 44.5091 4.54782 44.5818 4.62117 44.6546C4.69452 44.7273 4.84123 44.7273 4.91458 44.7273L9.7558 43.6364C9.82916 43.5636 9.90251 43.4909 9.97586 43.4182Z" fill="white"/>
<path d="M8.58216 38.0364C8.87557 37.6727 8.94892 37.2364 8.94892 36.7273C8.94892 36.2182 8.72887 35.7818 8.43546 35.4909C8.14205 35.2 7.70194 35.0545 7.11513 35.1273L3.44753 35.3454C3.37418 35.3454 3.30083 35.4182 3.22747 35.4909C3.15412 35.5636 3.15412 35.6364 3.15412 35.7818C3.15412 35.9273 3.15412 36 3.22747 36.0727C3.30083 36.1454 3.37418 36.2182 3.44753 36.1454L7.11513 35.9273C7.77529 35.8545 8.14205 36.1454 8.14205 36.8C8.14205 37.0909 8.0687 37.3091 7.922 37.5273C7.77529 37.6727 7.55524 37.8182 7.18848 37.8182L3.52088 38.0364C3.44753 38.0364 3.37418 38.1091 3.30083 38.1818C3.22747 38.2545 3.22747 38.3273 3.22747 38.4727C3.22747 38.6182 3.22747 38.6909 3.30083 38.7636C3.37418 38.8364 3.44753 38.9091 3.52088 38.8364L7.18848 38.6182C7.922 38.5454 8.36211 38.4 8.58216 38.0364Z" fill="white"/>
<path d="M3.44756 33.6727L8.50884 34.1091C8.58219 34.1091 8.65554 34.1091 8.7289 34.0364C8.80225 33.9636 8.80225 33.8909 8.80225 33.7455C8.80225 33.6 8.80225 33.5273 8.7289 33.4545C8.65554 33.3818 8.65554 33.3091 8.50884 33.3091L4.98795 33.0182L8.65554 31.4909C8.8756 31.4182 8.94895 31.2727 9.0223 31.0545C9.0223 30.9091 9.0223 30.8364 8.94895 30.7636C8.8756 30.6909 8.8756 30.6182 8.7289 30.6182L3.66761 30.1818C3.59426 30.1818 3.52091 30.1818 3.44756 30.2545C3.37421 30.3273 3.37421 30.4 3.37421 30.5455C3.37421 30.6909 3.37421 30.7636 3.44756 30.8364C3.52091 30.9091 3.52091 30.9818 3.66761 30.9818L7.1885 31.2727L3.74097 32.7273C3.52091 32.8 3.44756 32.8727 3.37421 32.9455C3.30085 33.0182 3.2275 33.1636 3.2275 33.3091C3.2275 33.5273 3.30085 33.6727 3.44756 33.6727Z" fill="white"/>
<path d="M4.03435 28.7273C4.03435 28.7273 4.1077 28.7273 4.18105 28.7273L7.33518 27.8546C7.40854 27.8546 7.40854 27.8546 7.40854 27.8546L9.31569 28.2909C9.38904 28.2909 9.46239 28.2909 9.53574 28.2182C9.60909 28.1455 9.68245 28.0727 9.68245 27.9273C9.68245 27.8546 9.68245 27.7091 9.68245 27.6364C9.68245 27.5636 9.60909 27.4909 9.53574 27.4909L7.62859 27.0546H7.55524L5.13463 24.8727L5.06128 24.8C4.98792 24.8 4.91457 24.8 4.76787 24.8727C4.69452 24.9455 4.62116 25.0909 4.62116 25.1636C4.62116 25.3091 4.62116 25.3818 4.76787 25.4546L6.89507 27.2L4.2544 27.8546C4.1077 27.9273 4.03435 28 4.03435 28.0727C4.03435 28.2182 4.03435 28.2909 4.03435 28.4364C3.88764 28.6546 3.961 28.7273 4.03435 28.7273Z" fill="white"/>
<path d="M9.68243 26.0364C9.82914 26.1091 9.90249 26.1091 10.0492 25.9636C10.1225 25.8909 10.1959 25.8182 10.2692 25.6727C10.3426 25.5273 10.2692 25.4545 10.1959 25.3818L9.24232 24.7273L9.90249 22.9818L11.0761 23.0545C11.2228 23.0545 11.2962 22.9818 11.3695 22.8364C11.4429 22.6909 11.4429 22.5455 11.3695 22.4727C11.3695 22.3273 11.2962 22.2545 11.2228 22.2545H11.1495L5.86813 21.8182C5.64808 21.8182 5.57473 21.9636 5.42802 22.2545C5.35467 22.5455 5.35467 22.7636 5.50137 22.8364L9.68243 26.0364ZM9.24232 22.9091L8.72886 24.3636L6.5283 22.7636L9.24232 22.9091Z" fill="white"/>
<path d="M8.28876 20L10.2693 21.0909C10.7827 21.3818 11.2228 21.4545 11.663 21.3091C12.0297 21.1636 12.3965 20.8727 12.6165 20.4364C12.8366 20 12.9833 19.5636 12.8366 19.1273C12.7632 18.6909 12.5432 18.4 12.1764 18.1818C12.0297 18.1091 11.883 18.1091 11.8097 18.1091C11.7363 18.1091 11.6629 18.1818 11.5896 18.3273C11.4429 18.5454 11.5162 18.6909 11.663 18.8364C11.7363 18.9091 11.8097 18.9818 11.883 18.9818C11.9564 18.9818 12.0297 19.1273 12.1031 19.2C12.1764 19.2727 12.1764 19.4182 12.1764 19.5636C12.1764 19.7091 12.1031 19.8545 12.0297 20C11.7363 20.5818 11.2962 20.6545 10.7094 20.3636L8.72887 19.2727C8.14206 18.9818 7.99536 18.5454 8.28876 17.9636C8.58217 17.4545 8.94893 17.3091 9.46239 17.6C9.6091 17.6727 9.7558 17.6 9.9025 17.3818C9.97586 17.2364 9.97586 17.1636 9.97586 17.0909C9.97586 17.0182 9.9025 16.9454 9.7558 16.8727C9.38904 16.6545 9.02228 16.6545 8.65552 16.8C8.28876 16.9454 7.99536 17.2364 7.70195 17.7454C7.33519 18.1818 7.26184 18.6182 7.33519 18.9818C7.48189 19.4182 7.7753 19.7818 8.28876 20Z" fill="white"/>
<path d="M13.2767 18.1818C13.4234 18.2546 13.4967 18.2546 13.6434 18.2546C13.7901 18.1818 13.8635 18.1091 13.9368 18.0364C14.0102 17.8909 14.0102 17.8182 13.9368 17.6727L13.2033 16.8L14.3036 15.2727L15.4039 15.6364C15.5506 15.6364 15.6239 15.6364 15.6973 15.4909C15.7706 15.4182 15.844 15.2727 15.844 15.1273C15.844 14.9818 15.844 14.9091 15.7706 14.8364C15.7706 14.8364 15.7706 14.8364 15.6973 14.8364L10.7827 13.0909C10.636 13.0182 10.4159 13.1636 10.2692 13.3818C10.1225 13.6 10.0492 13.8182 10.1959 13.9636L13.2767 18.1818ZM13.7168 15.0546L12.8366 16.2909L11.1495 14.1091L13.7168 15.0546Z" fill="white"/>
<path d="M12.1764 11.7091C12.2498 11.7818 12.3231 11.8546 12.3965 11.8546C12.4698 11.8546 12.5432 11.8546 12.6165 11.7818L13.4234 10.9091L16.7976 14.0364C16.8709 14.1091 16.9443 14.1091 17.0176 14.1091C17.091 14.1091 17.1643 14.0364 17.2377 13.9636C17.311 13.8909 17.3844 13.8182 17.3844 13.6727C17.3844 13.6 17.3844 13.5273 17.311 13.4546L13.9369 10.3273L14.7437 9.45455C14.8171 9.38183 14.8171 9.3091 14.8171 9.23637C14.8171 9.16365 14.7437 9.09092 14.6704 9.01819C14.597 8.94546 14.5237 8.94546 14.4503 8.87274C14.377 8.87274 14.3036 8.87274 14.2303 8.94546L12.0297 11.2727C11.9564 11.3455 11.9564 11.4182 11.9564 11.4909C12.0297 11.5636 12.1031 11.6364 12.1764 11.7091Z" fill="white"/>
<path d="M35.2089 15.5636C35.2822 15.7818 35.4289 15.9273 35.649 15.9273H35.7224C36.0158 15.8545 36.1625 15.6364 36.0891 15.3454L35.7957 14.0364C35.7224 13.7454 35.5023 13.6 35.2089 13.6727C34.9155 13.7454 34.7688 13.9636 34.8421 14.2545L35.2089 15.5636Z" fill="white"/>
<path d="M36.6026 16.0727C36.676 16.2909 36.8227 16.4364 37.0427 16.4364C37.1161 16.4364 37.1161 16.4364 37.1894 16.4364C37.4095 16.3636 37.6295 16.1455 37.5562 15.8545L36.9694 13.6C36.896 13.3818 36.676 13.1636 36.3825 13.2364C36.1625 13.3091 35.9424 13.5273 36.0158 13.8182L36.6026 16.0727Z" fill="white"/>
<path d="M34.9155 16.8727C32.4215 16.1454 31.7614 16.1454 31.6147 17.4545C31.468 18.5454 33.3018 20.5091 34.9889 20.5091C36.676 20.5091 37.8496 19.6364 37.8496 18.4727C37.7762 17.3818 36.896 17.4545 34.9155 16.8727ZM35.1356 20.1454C34.5488 20.1454 34.1086 19.6364 34.1086 18.9818C34.1086 18.3273 34.5488 17.8182 35.1356 17.8182C35.7224 17.8182 36.1625 18.3273 36.1625 18.9818C36.1625 19.6364 35.7224 20.1454 35.1356 20.1454Z" fill="white"/>
<path d="M36.6759 21.8182C36.6026 21.6 36.3092 21.4545 36.0891 21.5273L32.2748 22.6909C32.0548 22.7636 31.9081 23.0545 31.9814 23.2727C32.0548 23.4909 32.2015 23.6364 32.4215 23.6364C32.4949 23.6364 32.4949 23.6364 32.5682 23.6364L36.3092 22.4727C36.6026 22.3273 36.7493 22.0364 36.6759 21.8182Z" fill="white"/>
<path d="M36.1625 22.4727L34.0353 23.8545C33.8152 24 33.7419 24.2909 33.8886 24.5091C33.9619 24.6545 34.1086 24.7273 34.2553 24.7273C34.3287 24.7273 34.402 24.7273 34.5487 24.6545L36.676 23.2727C36.896 23.1273 36.9694 22.8364 36.8227 22.6182C36.676 22.3273 36.3825 22.3273 36.1625 22.4727Z" fill="white"/>
<path d="M32.7883 14.5454C33.8886 14.4727 34.2553 13.8182 34.2553 13.1636C34.2553 12.5091 33.2284 10.4727 32.4949 10.5454C31.8347 10.5454 31.8347 11.8545 31.9081 12.5091C32.0548 14.0364 32.0548 14.5454 32.7883 14.5454Z" fill="white"/>
<path d="M43.2776 15.9273H43.351C43.571 15.9273 43.7911 15.7818 43.7911 15.5636L44.0845 14.2545C44.1579 14.0364 44.0112 13.7454 43.7178 13.6727C43.4977 13.6 43.2043 13.7454 43.1309 14.0364L42.8375 15.3454C42.8375 15.6364 42.9842 15.9273 43.2776 15.9273Z" fill="white"/>
<path d="M41.8106 16.4364C41.884 16.4364 41.884 16.4364 41.9573 16.4364C42.1774 16.4364 42.3974 16.2909 42.3974 16.0727L42.9842 13.8182C43.0576 13.6 42.9109 13.3091 42.6175 13.2364C42.3974 13.1636 42.104 13.3091 42.0307 13.6L41.4438 15.8546C41.3705 16.0727 41.5905 16.3636 41.8106 16.4364Z" fill="white"/>
<path d="M44.0845 16.8727C42.104 17.4546 41.2238 17.3818 41.2238 18.5455C41.2238 19.6364 42.3974 20.5818 44.0845 20.5818C45.7716 20.5818 47.6054 18.6909 47.4587 17.5273C47.312 16.1455 46.5785 16.1455 44.0845 16.8727ZM43.8644 20.1455C43.2776 20.1455 42.8375 19.6364 42.8375 18.9818C42.8375 18.3273 43.2776 17.8182 43.8644 17.8182C44.4513 17.8182 44.8914 18.3273 44.8914 18.9818C44.8914 19.6364 44.3779 20.1455 43.8644 20.1455Z" fill="white"/>
<path d="M39.5367 20.4364C38.8032 20.4364 37.7029 20.3636 37.7029 21.0909C37.7029 21.7455 38.7298 22.6182 39.5367 22.6182C40.2702 22.6182 41.3705 21.7455 41.3705 21.0909C41.2971 20.2909 40.2702 20.4364 39.5367 20.4364Z" fill="white"/>
<path d="M46.7252 22.6909L42.9842 21.5273C42.7642 21.4545 42.4708 21.6 42.3974 21.8182C42.3241 22.0364 42.4708 22.3273 42.6908 22.4L46.4318 23.5636C46.5051 23.5636 46.5051 23.5636 46.5785 23.5636C46.7985 23.5636 46.9452 23.4182 47.0186 23.2C47.0919 22.9818 46.9452 22.7636 46.7252 22.6909Z" fill="white"/>
<path d="M42.8375 22.4727C42.6174 22.3273 42.324 22.4 42.1773 22.6182C42.0306 22.8364 42.104 23.1273 42.324 23.2727L44.4512 24.6546C44.5246 24.7273 44.5979 24.7273 44.7447 24.7273C44.8914 24.7273 45.0381 24.6546 45.1114 24.5091C45.2581 24.2909 45.1848 24 44.9647 23.8546L42.8375 22.4727Z" fill="white"/>
<path d="M46.2117 14.5455C47.0186 14.6182 46.9452 14.0364 47.0919 12.5091C47.1653 11.8545 47.1653 10.5455 46.5051 10.5455C45.8449 10.5455 44.7447 12.5818 44.7447 13.1636C44.7447 13.8182 45.0381 14.4727 46.2117 14.5455Z" fill="white"/>
<path d="M44.8913 44.6546L47.4587 46.0364V48.5091C47.4587 48.8727 47.7521 49.1636 48.1188 49.1636C48.4856 49.1636 48.779 48.8727 48.779 48.5091V46.0364L51.3463 44.6546C51.5664 44.5818 51.7131 44.2909 51.7131 44.0727V33.1636C51.7131 32.8 51.4197 32.5091 51.0529 32.5091C50.6861 32.5091 50.3927 32.8 50.3927 33.1636V33.8909L48.779 34.7636V32.0727C48.779 31.7091 48.4856 31.4182 48.1188 31.4182C47.7521 31.4182 47.4587 31.7091 47.4587 32.0727V34.7636L45.8449 33.8909V33.1636C45.8449 32.8 45.5515 32.5091 45.1848 32.5091C44.818 32.5091 44.5246 32.8 44.5246 33.1636V44.0727C44.4512 44.2909 44.6713 44.5091 44.8913 44.6546ZM45.8449 38.7636L47.4587 39.6364V41.2364L45.8449 40.3636V38.7636ZM50.4661 40.2909L48.8524 41.1636V39.5636L50.4661 38.6909V40.2909ZM45.8449 41.9636L47.4587 42.8364V44.5091L45.8449 43.6364V41.9636ZM48.779 44.5091V42.8364L50.3927 41.9636V43.6364L48.779 44.5091ZM50.4661 37.0909L48.8524 37.9636V36.2909L50.4661 35.4182V37.0909ZM47.4587 36.2909V37.9636L45.8449 37.0909V35.4182L47.4587 36.2909Z" fill="white"/>
<path d="M26.1866 35.2C26.3333 35.2 26.5534 35.3455 26.7734 35.4909C27.1402 35.7091 27.5803 36 28.0938 36C28.6072 36 28.974 35.7818 29.4141 35.4909C29.6342 35.3455 29.8542 35.2 30.0009 35.2C30.1476 35.2 30.3677 35.3455 30.5877 35.4909C30.9545 35.7091 31.3946 36 31.9081 36C32.4215 36 32.7883 35.7818 33.2284 35.4909C33.4485 35.3455 33.6685 35.2 33.8152 35.2C33.9619 35.2 34.182 35.3455 34.402 35.4909C34.7688 35.7091 35.2089 36 35.7224 36C36.0891 36 36.3825 35.7091 36.3825 35.3455C36.3825 34.9818 36.0891 34.6909 35.7224 34.6909C35.5757 34.6909 35.3556 34.5455 35.1356 34.4C34.7688 34.1818 34.3287 33.8909 33.8152 33.8909C33.3018 33.8909 32.935 34.1091 32.4949 34.4C32.2748 34.5455 32.0548 34.6909 31.9081 34.6909C31.7614 34.6909 31.5413 34.5455 31.3213 34.4C30.9545 34.1818 30.5144 33.8909 30.0009 33.8909C29.4875 33.8909 29.1207 34.1091 28.6806 34.4C28.4605 34.5455 28.2405 34.6909 28.0938 34.6909C27.9471 34.6909 27.727 34.5455 27.507 34.4C27.1402 34.1818 26.7001 33.8909 26.1866 33.8909C25.8199 33.8909 25.5265 34.1818 25.5265 34.5455C25.5265 34.8364 25.8199 35.2 26.1866 35.2Z" fill="white"/>
<path d="M26.1866 37.8909C26.3333 37.8909 26.5534 38.0364 26.7734 38.1818C27.1402 38.4 27.5803 38.6909 28.0938 38.6909C28.6072 38.6909 28.974 38.4727 29.4141 38.1818C29.6342 38.0364 29.8542 37.8909 30.0009 37.8909C30.1476 37.8909 30.3677 38.0364 30.5877 38.1818C30.9545 38.4 31.3946 38.6909 31.9081 38.6909C32.4215 38.6909 32.7883 38.4727 33.2284 38.1818C33.4485 38.0364 33.6685 37.8909 33.8152 37.8909C33.9619 37.8909 34.182 38.0364 34.402 38.1818C34.7688 38.4 35.2089 38.6909 35.7224 38.6909C36.0891 38.6909 36.3825 38.4 36.3825 38.0364C36.3825 37.6727 36.0891 37.3818 35.7224 37.3818C35.5757 37.3818 35.3556 37.2364 35.1356 37.0909C34.7688 36.8727 34.3287 36.5818 33.8152 36.5818C33.3018 36.5818 32.935 36.8 32.4949 37.0909C32.2748 37.2364 32.0548 37.3818 31.9081 37.3818C31.7614 37.3818 31.5413 37.2364 31.3213 37.0909C30.9545 36.8727 30.5144 36.5818 30.0009 36.5818C29.4875 36.5818 29.1207 36.8 28.6806 37.0909C28.4605 37.2364 28.2405 37.3818 28.0938 37.3818C27.9471 37.3818 27.727 37.2364 27.507 37.0909C27.1402 36.8727 26.7001 36.5818 26.1866 36.5818C25.8199 36.5818 25.5265 36.8727 25.5265 37.2364C25.5265 37.6 25.8199 37.8909 26.1866 37.8909Z" fill="white"/>
<path d="M26.1866 40.5818C26.3333 40.5818 26.5534 40.7273 26.7735 40.8727C27.1402 41.0909 27.5803 41.3818 28.0938 41.3818C28.6073 41.3818 28.974 41.1636 29.4141 40.8727C29.6342 40.7273 29.8542 40.5818 30.0009 40.5818C30.1476 40.5818 30.3677 40.7273 30.5878 40.8727C30.9545 41.0909 31.3946 41.3818 31.9081 41.3818C32.4216 41.3818 32.7883 41.1636 33.2284 40.8727C33.4485 40.7273 33.6685 40.5818 33.8152 40.5818C33.9619 40.5818 34.182 40.7273 34.4021 40.8727C34.7688 41.0909 35.2089 41.3818 35.7224 41.3818C36.0891 41.3818 36.3826 41.0909 36.3826 40.7273C36.3826 40.3636 36.0891 40.0727 35.7224 40.0727C35.5757 40.0727 35.3556 39.9273 35.1356 39.7818C34.6955 39.4909 34.2553 39.2727 33.7419 39.2727C33.2284 39.2727 32.8617 39.4909 32.4216 39.7818C32.2015 39.9273 31.9814 40.0727 31.8347 40.0727C31.688 40.0727 31.468 39.9273 31.2479 39.7818C30.8812 39.5636 30.441 39.2727 29.9276 39.2727C29.4141 39.2727 29.0474 39.4909 28.6073 39.7818C28.3872 39.9273 28.1671 40.0727 28.0204 40.0727C27.8737 40.0727 27.6537 39.9273 27.4336 39.7818C27.0669 39.5636 26.6267 39.2727 26.1133 39.2727C25.7465 39.2727 25.4531 39.5636 25.4531 39.9273C25.4531 40.2909 25.8199 40.5818 26.1866 40.5818Z" fill="white"/>
<path d="M26.1866 43.2727C26.3333 43.2727 26.5534 43.4182 26.7734 43.5636C27.1402 43.7818 27.5803 44.0727 28.0938 44.0727C28.6072 44.0727 28.974 43.8546 29.4141 43.5636C29.6342 43.4182 29.8542 43.2727 30.0009 43.2727C30.1476 43.2727 30.3677 43.4182 30.5877 43.5636C30.9545 43.7818 31.3946 44.0727 31.9081 44.0727C32.4215 44.0727 32.7883 43.8546 33.2284 43.5636C33.4485 43.4182 33.6685 43.2727 33.8152 43.2727C33.9619 43.2727 34.182 43.4182 34.402 43.5636C34.7688 43.7818 35.2089 44.0727 35.7224 44.0727C36.0891 44.0727 36.3825 43.7818 36.3825 43.4182C36.3825 43.0546 36.0891 42.7636 35.7224 42.7636C35.5757 42.7636 35.3556 42.6182 35.1356 42.4727C34.7688 42.2546 34.3287 41.9636 33.8152 41.9636C33.3018 41.9636 32.935 42.1818 32.4949 42.4727C32.2748 42.6182 32.0548 42.7636 31.9081 42.7636C31.7614 42.7636 31.5413 42.6182 31.3213 42.4727C30.9545 42.2546 30.5144 41.9636 30.0009 41.9636C29.4875 41.9636 29.1207 42.1818 28.6806 42.4727C28.4605 42.6182 28.2405 42.7636 28.0938 42.7636C27.9471 42.7636 27.727 42.6182 27.507 42.4727C27.1402 42.2546 26.7001 41.9636 26.1866 41.9636C25.8199 41.9636 25.5265 42.2546 25.5265 42.6182C25.5265 42.9818 25.8199 43.2727 26.1866 43.2727Z" fill="white"/>
<path d="M26.1866 45.9636C26.3333 45.9636 26.5534 46.1091 26.7734 46.2545C27.1402 46.4727 27.5803 46.7636 28.0938 46.7636C28.6072 46.7636 28.974 46.5454 29.4141 46.2545C29.6342 46.1091 29.8542 45.9636 30.0009 45.9636C30.1476 45.9636 30.3677 46.1091 30.5877 46.2545C30.9545 46.4727 31.3946 46.7636 31.9081 46.7636C32.4215 46.7636 32.7883 46.5454 33.2284 46.2545C33.4485 46.1091 33.6685 45.9636 33.8152 45.9636C33.9619 45.9636 34.182 46.1091 34.402 46.2545C34.7688 46.4727 35.2089 46.7636 35.7224 46.7636C36.0891 46.7636 36.3825 46.4727 36.3825 46.1091C36.3825 45.7455 36.0891 45.4545 35.7224 45.4545C35.5757 45.4545 35.3556 45.3091 35.1356 45.1636C34.7688 44.9454 34.3287 44.6545 33.8152 44.6545C33.3018 44.6545 32.935 44.8727 32.4949 45.1636C32.2748 45.3091 32.0548 45.4545 31.9081 45.4545C31.7614 45.4545 31.5413 45.3091 31.3213 45.1636C30.9545 44.9454 30.5144 44.6545 30.0009 44.6545C29.4875 44.6545 29.1207 44.8727 28.6806 45.1636C28.4605 45.3091 28.2405 45.4545 28.0938 45.4545C27.9471 45.4545 27.727 45.3091 27.507 45.1636C27.1402 44.9454 26.7001 44.6545 26.1866 44.6545C25.8199 44.6545 25.5265 44.9454 25.5265 45.3091C25.5265 45.6727 25.8199 45.9636 26.1866 45.9636Z" fill="white"/>
<path d="M30.5144 3.85454H32.3482C32.4215 3.85454 32.4215 3.85454 32.4949 3.78181C32.4949 3.70908 32.5682 3.70908 32.5682 3.63635C32.5682 3.56363 32.5682 3.4909 32.4949 3.4909C32.4949 3.41817 32.4215 3.41817 32.3482 3.41817H30.8078V2.18181H31.6147C31.688 2.18181 31.688 2.18181 31.7614 2.10908C31.7614 2.03636 31.8347 2.03635 31.8347 1.96363C31.8347 1.8909 31.8347 1.81817 31.7614 1.81817C31.7614 1.74545 31.688 1.74545 31.6147 1.74545H30.8078V0.654537H32.3482C32.4215 0.654537 32.4215 0.654537 32.4949 0.581809C32.4949 0.509082 32.5682 0.509082 32.5682 0.436355C32.5682 0.363627 32.5682 0.2909 32.4949 0.2909C32.4949 0.218173 32.4215 0.218173 32.3482 0.218173H30.5144C30.441 0.218173 30.3677 0.218173 30.3677 0.2909C30.2943 0.2909 30.2943 0.363627 30.2943 0.436355V3.78181C30.2943 3.85454 30.2943 3.85454 30.3677 3.92726C30.441 3.85454 30.441 3.85454 30.5144 3.85454Z" fill="white"/>
<path d="M33.1551 3.7091C33.3751 3.85455 33.6685 3.92728 33.9619 3.92728C34.3287 3.92728 34.6221 3.85455 34.8422 3.63637C35.0622 3.41819 35.1356 3.20001 35.1356 2.83637C35.1356 2.61819 35.1356 2.47274 35.0622 2.32728C34.9889 2.18183 34.9155 2.1091 34.8422 1.96365C34.7688 1.89092 34.6221 1.81819 34.5488 1.74546C34.4021 1.67274 34.3287 1.60001 34.182 1.60001C34.0353 1.52728 33.9619 1.52728 33.8886 1.45455C33.8152 1.38183 33.7419 1.38183 33.6685 1.23637C33.5952 1.16365 33.5952 1.09092 33.5952 0.945463C33.5952 0.800009 33.6685 0.654554 33.7419 0.581827C33.8886 0.5091 34.0353 0.436373 34.182 0.436373C34.3287 0.436373 34.4021 0.436373 34.5488 0.5091C34.4754 0.654554 34.5488 0.727282 34.6221 0.727282C34.6955 0.727282 34.6955 0.800009 34.7688 0.800009C34.8422 0.800009 34.9155 0.800009 34.9155 0.727282C34.9889 0.654554 34.9889 0.581827 34.9889 0.5091C34.9889 0.436373 34.9889 0.363645 34.9155 0.363645C34.8422 0.290918 34.7688 0.290918 34.6955 0.218191C34.6221 0.145463 34.4754 0.145463 34.3287 0.145463C34.2553 0.145463 34.1086 0.145463 34.0353 0.145463C33.8886 0.145463 33.7419 0.145463 33.5952 0.218191C33.4485 0.218191 33.3018 0.290918 33.2284 0.363645C33.0817 0.436373 33.0084 0.5091 32.935 0.654554C32.8617 0.800009 32.8617 0.945463 32.8617 1.09092C32.8617 1.3091 32.935 1.52728 33.0084 1.67274C33.1551 1.81819 33.2284 1.96365 33.4485 2.03637C33.6685 2.1091 33.8152 2.18183 33.9619 2.18183C34.1086 2.25455 34.2554 2.32728 34.4021 2.47274C34.4754 2.61819 34.5488 2.69092 34.5488 2.9091C34.5488 3.05455 34.4754 3.20001 34.4021 3.34546C34.2554 3.41819 34.1086 3.49092 33.9619 3.49092C33.8152 3.49092 33.7419 3.49092 33.5952 3.41819C33.4485 3.34546 33.4485 3.34546 33.3751 3.27274C33.3018 3.20001 33.3018 3.20001 33.2284 3.12728C33.1551 3.05455 33.0817 2.98183 33.0084 2.98183C32.935 2.98183 32.8617 2.98183 32.8617 3.05455C32.7883 3.12728 32.7883 3.20001 32.7883 3.27274C32.7883 3.41819 32.935 3.56365 33.1551 3.7091Z" fill="white"/>
<path d="M35.5023 0.654554H36.3092V3.7091C36.3092 3.78183 36.3092 3.78183 36.3826 3.85455C36.4559 3.85455 36.5293 3.92728 36.6026 3.92728C36.676 3.92728 36.7493 3.92728 36.8227 3.85455C36.896 3.85455 36.896 3.78183 36.896 3.7091V0.654554H37.7029C37.7762 0.654554 37.7762 0.654554 37.8496 0.581827C37.8496 0.5091 37.9229 0.436373 37.9229 0.363645C37.9229 0.290918 37.9229 0.218191 37.8496 0.218191C37.7762 0.218191 37.7762 0.145463 37.7029 0.145463H35.5757C35.5023 0.145463 35.5023 0.145463 35.429 0.218191C35.429 0.290918 35.3556 0.290918 35.3556 0.363645C35.3556 0.436373 35.3556 0.5091 35.429 0.5091C35.429 0.581827 35.5023 0.654554 35.5023 0.654554Z" fill="white"/>
<path d="M37.9229 3.78182C37.9963 3.85455 38.0696 3.85455 38.143 3.85455C38.2163 3.85455 38.2897 3.85455 38.363 3.78182C38.4364 3.70909 38.4364 3.63636 38.4364 3.56364C38.4364 3.49091 38.4364 3.41818 38.363 3.34545C38.2897 3.27273 38.2163 3.27273 38.143 3.27273C38.0696 3.27273 37.9963 3.27273 37.9229 3.34545C37.8496 3.41818 37.8496 3.49091 37.8496 3.56364C37.8496 3.70909 37.8496 3.78182 37.9229 3.78182Z" fill="white"/>
<path d="M40.0501 3.85455H41.8839C41.9573 3.85455 41.9573 3.85455 42.0306 3.78183C42.0306 3.7091 42.104 3.7091 42.104 3.63637C42.104 3.56365 42.104 3.49092 42.0306 3.49092C42.0306 3.41819 41.9573 3.41819 41.8839 3.41819H40.3435V3.20001C40.3435 3.12728 40.4169 2.98183 40.4902 2.9091C40.6369 2.76365 40.7103 2.69092 40.9304 2.54546C41.0771 2.40001 41.2238 2.32728 41.4438 2.18183C41.5905 2.03637 41.7372 1.89092 41.8839 1.74546C42.0306 1.60001 42.0306 1.38183 42.0306 1.16365C42.0306 0.872736 41.9573 0.654554 41.7372 0.436373C41.5172 0.218191 41.2971 0.145463 40.9304 0.145463C40.6369 0.145463 40.4169 0.218191 40.1968 0.363645C39.9768 0.5091 39.9034 0.727282 39.9034 1.01819C39.9034 1.23637 39.9768 1.3091 40.1235 1.3091C40.1968 1.3091 40.2702 1.3091 40.3435 1.23637C40.4169 1.16365 40.4169 1.16365 40.4169 1.09092C40.4169 0.945463 40.4902 0.800009 40.5636 0.727282C40.6369 0.654554 40.7837 0.581827 40.9304 0.581827C41.0771 0.581827 41.2238 0.654554 41.3705 0.727282C41.4438 0.800009 41.5172 0.945463 41.5172 1.09092C41.5172 1.23637 41.4438 1.38183 41.3705 1.52728C41.2238 1.67274 41.1504 1.81819 40.9304 1.89092L40.4169 2.25455C40.2702 2.40001 40.1235 2.47274 39.9768 2.61819C39.8301 2.76365 39.8301 2.9091 39.8301 3.05455V3.56365C39.8301 3.63637 39.8301 3.63637 39.9034 3.7091C39.9034 3.85455 39.9768 3.85455 40.0501 3.85455Z" fill="white"/>
<path d="M43.571 3.92728C43.9378 3.92728 44.2312 3.85455 44.4512 3.63637C44.6713 3.41819 44.7447 3.12728 44.7447 2.76365V1.3091C44.7447 0.945463 44.6713 0.654554 44.4512 0.436373C44.2312 0.218191 43.9378 0.145463 43.571 0.145463C43.2043 0.145463 42.9109 0.218191 42.6908 0.436373C42.4707 0.654554 42.3974 0.872736 42.3974 1.3091V2.76365C42.3974 3.12728 42.4707 3.41819 42.6908 3.63637C42.9842 3.78183 43.2776 3.92728 43.571 3.92728ZM42.9842 1.3091C42.9842 0.872736 43.2043 0.654554 43.571 0.654554C43.7911 0.654554 43.9378 0.727282 44.0111 0.800009C44.0845 0.872736 44.1578 1.09092 44.1578 1.3091V2.76365C44.1578 2.98183 44.0845 3.12728 44.0111 3.27274C43.9378 3.34546 43.7177 3.41819 43.571 3.41819C43.1309 3.41819 42.9842 3.20001 42.9842 2.76365V1.3091Z" fill="white"/>
<path d="M45.2581 1.16364C45.3315 1.16364 45.3315 1.16364 45.4048 1.09091L45.5515 0.872732V3.7091C45.5515 3.78182 45.5515 3.78182 45.6249 3.85455C45.6982 3.85455 45.7716 3.92728 45.8449 3.92728C45.9183 3.92728 45.9916 3.92728 46.065 3.85455C46.1383 3.85455 46.1384 3.78182 46.1384 3.7091V0.290914C46.1384 0.218186 46.1383 0.218186 46.065 0.145459C45.9916 0.145459 45.9916 0.0727317 45.9183 0.0727317C45.8449 0.0727317 45.8449 0.0727317 45.7716 0.145459L45.1848 0.727277C45.1114 0.800004 45.1114 0.872732 45.1114 0.945459C45.1114 1.01819 45.1114 1.01819 45.1848 1.09091C45.1114 1.09091 45.1848 1.16364 45.2581 1.16364Z" fill="white"/>
<path d="M47.7521 3.92728C48.1189 3.92728 48.4123 3.85455 48.559 3.63637C48.779 3.49092 48.8524 3.20001 48.8524 2.83637V2.76365C48.8524 2.25455 48.6323 1.96365 48.2656 1.81819C48.559 1.67274 48.779 1.45455 48.779 1.01819C48.779 0.727282 48.7057 0.5091 48.4856 0.363645C48.2656 0.218191 48.0455 0.145463 47.7521 0.145463C47.4587 0.145463 47.1653 0.218191 47.0186 0.363645C46.7985 0.5091 46.7252 0.727282 46.7252 1.01819C46.7252 1.45455 46.8719 1.67274 47.1653 1.81819C46.7985 1.96365 46.5785 2.25455 46.5785 2.76365V2.83637C46.5785 3.20001 46.6518 3.49092 46.8719 3.63637C47.0919 3.78183 47.3853 3.92728 47.7521 3.92728ZM47.7521 0.581827C48.1189 0.581827 48.2656 0.727282 48.2656 1.09092C48.2656 1.45455 48.1189 1.60001 47.7521 1.60001C47.3853 1.60001 47.2386 1.45455 47.2386 1.09092C47.2386 0.800009 47.3853 0.581827 47.7521 0.581827ZM47.0919 2.69092C47.0919 2.25455 47.312 2.03637 47.6787 2.03637C48.1189 2.03637 48.2656 2.25455 48.2656 2.69092V2.76365C48.2656 3.20001 48.0455 3.41819 47.6787 3.41819C47.4587 3.41819 47.312 3.34546 47.2386 3.27274C47.1653 3.20001 47.0919 2.98183 47.0919 2.76365V2.69092Z" fill="white"/>
<path d="M29.2674 67.3455C29.3407 67.3455 29.4874 67.4182 29.5608 67.4182C29.8542 67.4909 30.221 67.4909 30.5144 67.4909C30.5877 67.4909 30.6611 67.4909 30.6611 67.4909C30.7344 67.4909 30.8078 67.4909 30.8078 67.4909C30.8811 67.4909 30.9545 67.4909 30.9545 67.4909C31.0278 67.4909 31.1012 67.4909 31.1012 67.4909C31.3946 67.4909 31.7614 67.4909 32.0548 67.4182C32.1281 67.4182 32.2748 67.3455 32.3482 67.3455C34.4754 66.8364 36.2358 64.9455 36.896 62.5455L37.0427 61.9636L36.4559 61.8909C36.3092 61.8182 36.0891 61.8182 35.7957 61.8182C35.8691 60.7273 35.7957 59.6364 35.5023 58.6182L35.3556 58.1091L34.7688 58.1818C34.182 58.3273 33.5952 58.5455 33.0817 58.8364C32.7149 57.6727 32.1281 56.6545 31.3212 55.7818L30.9545 55.3455L30.5877 55.7818C29.7809 56.6545 29.194 57.6727 28.8273 58.8364C28.3138 58.5455 27.727 58.3273 27.1402 58.1818L26.6267 58.0364L26.4067 58.6182C26.1133 59.6364 26.0399 60.7273 26.1133 61.8182C25.8199 61.8182 25.5264 61.8182 25.233 61.8909L24.6462 61.9636L24.7929 62.5455C25.4531 64.9455 27.1402 66.8364 29.2674 67.3455ZM30.9545 62.4C30.7344 62.4 30.5144 62.6182 30.5144 62.9091V63.8546C30.3677 63.6364 30.1476 63.4909 29.9276 63.2727C30.0743 62.2546 30.441 61.3091 30.9545 60.5091C31.468 61.3091 31.8347 62.2546 31.9814 63.2727C31.7614 63.4182 31.6147 63.6364 31.3946 63.8546V62.9091C31.3946 62.6909 31.1745 62.4 30.9545 62.4ZM35.7957 62.8364C35.1355 64.5818 33.8152 65.8909 32.2748 66.2546C32.2015 66.2546 32.1281 66.3273 32.0548 66.3273C31.7614 66.4 31.468 66.4 31.1012 66.4C31.2479 65.9636 31.468 65.5273 31.688 65.1636C32.0548 64.5818 32.5682 64.0727 33.0817 63.6364C33.9619 63.1273 34.8421 62.8364 35.7957 62.8364ZM32.4215 60.8C33.0083 60.1455 33.7419 59.7091 34.5487 59.4182C34.6954 60.2182 34.7688 61.0909 34.6954 61.8909C34.3287 61.9636 33.9619 62.0364 33.5952 62.1818L34.182 61.0182C34.3287 60.8 34.2553 60.5091 34.0353 60.3636C33.9619 60.2909 33.8152 60.2909 33.6685 60.2909C33.5218 60.2909 33.4485 60.4364 33.3751 60.5091L32.7149 61.8182C32.6416 61.5273 32.4949 61.1636 32.4215 60.8ZM30.9545 57.0182C31.5413 57.7455 31.9814 58.6182 32.2015 59.5636C32.0548 59.7091 31.9081 59.7818 31.8347 59.9273C31.688 59.7091 31.5413 59.5636 31.3946 59.3455V58.3273C31.3946 58.0364 31.1745 57.8182 30.9545 57.8182C30.7344 57.8182 30.5144 58.0364 30.5144 58.3273V59.3455C30.3677 59.5636 30.221 59.7091 30.0743 59.9273C29.9276 59.7818 29.7809 59.7091 29.7075 59.5636C29.9276 58.6182 30.3677 57.7455 30.9545 57.0182ZM27.2869 59.4182C28.0938 59.7091 28.8273 60.2182 29.4141 60.8L29.4875 60.8727C29.3407 61.1636 29.194 61.5273 29.1207 61.8909L28.4605 60.5818C28.3872 60.4364 28.3138 60.3636 28.1671 60.3636C28.0204 60.3636 27.9471 60.3636 27.8004 60.4364C27.5803 60.5818 27.5069 60.8727 27.6537 61.0909L28.2405 62.2546C27.8737 62.1091 27.5069 62.0364 27.1402 61.9636C27.0668 61.0909 27.1402 60.2182 27.2869 59.4182ZM28.6806 63.7091C29.2674 64.0727 29.7075 64.5818 30.0743 65.2364C30.1476 65.3091 30.221 65.4546 30.221 65.5273C30.0743 65.8182 30.0009 66.1091 29.9276 66.4C29.8542 66.4 29.7809 66.4 29.7809 66.4C29.7075 66.4 29.6342 66.4 29.5608 66.3273C27.9471 65.9636 26.7001 64.6546 26.0399 62.9091C26.9935 62.8364 27.8737 63.1273 28.6806 63.7091Z" fill="white"/>
<path d="M48.1189 67.9273C48.1922 67.9273 48.2656 67.9273 48.3389 67.8546C48.7057 67.6364 48.9991 67.4182 49.3658 67.2C51.7131 65.6727 54.3538 63.9273 54.3538 60.8727C54.3538 60.1455 54.2071 59.5636 53.987 59.0545C53.6936 58.4727 53.3268 58.0364 52.8867 57.6727C52.52 57.3818 52.0799 57.1636 51.7131 57.0909C51.4197 57.0182 51.1263 56.9455 50.8329 56.9455C50.4661 56.9455 50.1727 57.0182 49.8793 57.0909C49.2925 57.3091 48.779 57.6727 48.4123 58.1818C48.3389 58.2545 48.3389 58.3273 48.2656 58.4C48.1922 58.3273 48.1922 58.2545 48.1189 58.1818C47.7521 57.6727 47.2386 57.3091 46.6518 57.0909C46.3584 57.0182 45.9916 56.9455 45.6982 56.9455C45.4048 56.9455 45.1114 57.0182 44.818 57.0909C44.3779 57.2364 44.0111 57.3818 43.6444 57.6727C43.2043 58.0364 42.8375 58.4727 42.5441 59.0545C42.3241 59.5636 42.1773 60.2182 42.1773 60.8727C42.1773 63.9273 44.818 65.6727 47.1653 67.2C47.532 67.4182 47.8254 67.6364 48.1922 67.8546C47.9721 67.9273 48.0455 67.9273 48.1189 67.9273ZM43.2776 60.8727C43.2776 60.3636 43.351 59.9273 43.571 59.5636C43.7177 59.2 43.9378 58.9091 44.2312 58.6909C44.4513 58.5455 44.7447 58.4 44.9647 58.3273C45.1114 58.2545 45.3315 58.2545 45.4782 58.2545C45.6982 58.2545 45.8449 58.2545 46.065 58.3273C46.4318 58.4727 46.6518 58.6182 46.8719 58.9091C46.8719 58.9818 46.9452 58.9818 46.9452 59.0545C47.1653 59.4909 47.6054 59.7091 48.1189 59.7091C48.559 59.7091 48.9991 59.4909 49.2925 59.0545C49.2925 58.9818 49.3658 58.9818 49.3658 58.9091C49.5859 58.6182 49.8793 58.4 50.1727 58.3273C50.3194 58.2545 50.5395 58.2545 50.7595 58.2545C50.9062 58.2545 51.1263 58.2545 51.273 58.3273C51.5664 58.4 51.7864 58.5455 52.0065 58.6909C52.2999 58.9091 52.52 59.2 52.6667 59.5636C52.8134 59.9273 52.9601 60.3636 52.9601 60.8727C52.9601 63.2 50.7595 64.6545 48.559 66.1091C48.4123 66.1818 48.2656 66.3273 48.1189 66.4C47.9721 66.3273 47.8254 66.1818 47.6787 66.1091C45.5515 64.7273 43.2776 63.2 43.2776 60.8727Z" fill="white"/>
<path d="M45.3315 58.9818C45.1114 59.0546 44.8914 59.1273 44.6713 59.2727C44.4512 59.4909 44.2312 59.7091 44.0845 60C43.9378 60.2909 43.8644 60.6546 43.8644 61.0909C43.8644 61.6 44.0111 62.1091 44.2312 62.6182C44.3045 62.7636 44.4512 62.8364 44.6713 62.8364C44.7447 62.8364 44.818 62.8364 44.8914 62.7636C45.1114 62.6182 45.1848 62.3273 45.1114 62.1091C44.8914 61.7455 44.818 61.4546 44.818 61.0909C44.818 60.8 44.8914 60.5818 44.9647 60.4364C45.0381 60.2909 45.1114 60.1455 45.2581 60.0727C45.3315 60 45.4782 59.9273 45.5515 59.9273C45.8449 59.8546 45.9916 59.5636 45.9183 59.3455C45.9183 59.0546 45.6249 58.9091 45.3315 58.9818Z" fill="white"/>
<path d="M79 34.8364C79 20.6545 71.2247 7.56364 58.7549 0.581818L57.5812 0L58.4615 7.70909L51.493 10.5455L52.6667 11.2C61.3955 16 66.7502 25.0909 66.7502 34.8364C66.7502 41.6 64.1829 47.7818 60.0019 52.5818V44C60.0019 42.9091 60.0752 41.8182 60.0752 40.7273C61.2488 40.3636 61.909 38.4727 62.0557 36.8C62.2024 35.7818 62.1291 34.8364 61.9824 34.0364C61.7623 33.1636 61.3955 32.7273 61.0288 32.5091C61.2488 31.4182 61.4689 30.2545 61.7623 29.1636L62.5692 25.8909L62.7892 25.0909H53.4735C52.0065 21.3091 49.3658 13.3091 49.2925 12.5091C49.2925 12.4364 49.2925 12.2182 49.2925 12C49.3658 10.7636 49.5125 8.50909 49.1458 7.27273C48.9257 6.47273 48.1922 6.03636 47.6787 6.03636C46.3584 5.96364 44.1578 8.58182 43.4243 9.38182C41.7372 8.87273 37.1894 8.87273 35.5023 9.38182C34.8422 8.50909 32.6416 5.96364 31.2479 6.03636C30.8078 6.03636 30.0743 6.47273 29.8542 7.27273C29.4141 8.50909 29.5608 10.7636 29.7075 12C29.7075 12.2182 29.7075 12.4364 29.7075 12.5091C29.6342 13.3091 26.9935 21.3091 25.5265 25.0909H16.1374L16.3575 25.8909L17.1643 29.1636C17.4578 30.2545 17.6778 31.4182 17.8979 32.5091C16.8709 33.1636 16.6509 35.1273 16.8709 36.8C17.0176 37.8182 17.2377 38.7636 17.6045 39.4182C18.0446 40.2182 18.4847 40.5818 18.8514 40.6545C18.9248 41.7455 18.9248 42.8364 18.9248 43.9273V52.5091C14.7437 47.7818 12.1764 41.5273 12.1764 34.7636C12.1764 24.9455 17.5311 15.9273 26.1866 11.1273L27.3603 10.4727L20.5385 7.70909L21.4188 0L20.2451 0.654545C7.7753 7.56364 0 20.6545 0 34.8364C0 49.6727 8.36212 62.6182 20.6119 69.2364C20.9786 69.7455 21.3454 70.2545 21.7855 70.7636C23.766 73.0182 26.9201 75.1273 29.5608 76.5091C32.2015 77.8909 35.7957 79.2 38.7298 79.8546L39.3166 80H39.61L40.1968 79.8546C43.1309 79.1273 46.6518 77.9636 49.3658 76.5091C52.0065 75.0545 55.1606 73.0182 57.1411 70.7636C57.5812 70.2545 57.948 69.7455 58.3148 69.2364C70.6379 62.6182 79 49.6727 79 34.8364ZM60.8087 36.6545C60.5887 38.5455 59.9285 39.5636 59.6351 39.4909C58.0214 39.2727 56.8477 37.8182 57.0678 36.2182C57.1411 35.4182 57.5812 34.7636 58.1681 34.2545C58.6815 33.8182 59.3417 33.6 60.0019 33.6C60.1486 33.6 60.2219 33.6 60.3686 33.6C60.5153 33.6 60.662 33.8909 60.8087 34.3273C60.8821 34.9818 60.9554 35.7818 60.8087 36.6545ZM56.9944 32.8L56.481 32.4364C56.1876 32.2182 55.7474 32.2909 55.5274 32.5818C55.3073 32.8727 55.3807 33.3091 55.6741 33.5273L56.481 34.1091C56.1876 34.4727 55.9675 34.9091 55.8208 35.4182L54.7205 35.2727C54.3538 35.2 53.987 35.4909 53.987 35.8545C53.987 36.2182 54.2071 36.5818 54.5738 36.5818L55.6741 36.7273C55.6741 37.2364 55.8208 37.6727 55.9675 38.1091L55.0139 38.4727C54.6472 38.6182 54.5005 38.9818 54.6472 39.3455C54.7205 39.6364 55.0139 39.7818 55.234 39.7818C55.3073 39.7818 55.3807 39.7818 55.454 39.7091L56.0409 39.4909C55.9675 41.0182 55.8941 42.5455 55.8941 44.0727V51.6364H40.1968V29.0182H57.8013C57.5079 30.3273 57.2145 31.5636 56.9944 32.8ZM23.0325 51.5636V44C23.0325 42.4727 22.9591 40.9455 22.8858 39.4182L23.4726 39.6364C23.546 39.6364 23.6193 39.7091 23.6927 39.7091C23.9861 39.7091 24.2061 39.5636 24.2795 39.2727C24.4262 38.9091 24.2795 38.5455 23.9127 38.4L22.9591 38.0364C23.1059 37.6 23.2526 37.0909 23.2526 36.6545L24.3528 36.5091C24.7196 36.4364 25.013 36.1455 24.9396 35.7818C24.8663 35.4182 24.5729 35.1273 24.2061 35.2L23.1059 35.3455C22.9591 34.9091 22.7391 34.4727 22.4457 34.0364L23.2526 33.4545C23.546 33.2364 23.6193 32.8 23.3993 32.5091C23.1792 32.2182 22.7391 32.1455 22.4457 32.3636L22.0056 32.8C21.7855 31.5636 21.5655 30.2545 21.2721 29.0182H38.8765V51.5636H23.0325ZM23.0325 52.8727H38.8765V75.8546C36.3825 75.2 33.5218 74.1091 31.6147 73.0909C29.4141 71.9273 26.5534 70.0364 24.8663 68.1455C24.2795 67.4182 23.8394 66.6909 23.4726 65.8909C23.1792 65.0909 23.0325 64.2182 23.0325 63.3455V52.8727ZM56.0409 52.8727V63.3455C56.0409 64.2909 55.8942 65.0909 55.6007 65.8909C55.3073 66.6909 54.8672 67.4182 54.2071 68.1455L54.0604 68.2909C52.6667 69.8182 50.3928 71.4909 47.3853 73.0909C45.5515 74.1091 42.8375 75.1273 40.1235 75.7818V52.8727H56.0409ZM27.9471 22.0364L30.1476 23.1273C30.221 23.2 30.3677 23.2 30.441 23.2C30.6611 23.2 30.9545 23.0545 31.0279 22.8364C31.1746 22.4727 31.0279 22.1091 30.7345 21.9636L28.3872 20.8C28.4605 20.6545 28.4605 20.5818 28.5339 20.4364L29.7075 21.0182C29.7809 21.0909 29.9276 21.0909 30.0009 21.0909C30.221 21.0909 30.5144 20.9455 30.5877 20.7273C30.7344 20.3636 30.5877 20 30.2943 19.8545L28.9007 19.2C30.0009 15.9273 30.8812 12.8727 30.8812 12.5818C30.8812 12.5091 30.8812 12.2909 30.8812 12C30.8078 11.0545 30.6611 8.8 31.0279 7.78182C31.1012 7.49091 31.3946 7.34546 31.3946 7.34546C31.8347 7.34546 33.4485 8.8 34.6955 10.4C34.9155 10.6909 35.3556 10.8364 35.7957 10.6909C36.0891 10.5455 36.6026 10.4727 37.1161 10.4V11.4909C37.1161 11.8545 37.4095 12.1455 37.7762 12.1455C38.143 12.1455 38.4364 11.8545 38.4364 11.4909V10.1818C38.5831 10.1818 38.6565 10.1818 38.8032 10.1818V12.7273C38.8032 13.0909 39.0966 13.3818 39.4633 13.3818C39.8301 13.3818 40.1235 13.0909 40.1235 12.7273V10.1818C40.2702 10.1818 40.4169 10.1818 40.4903 10.1818V11.4182C40.4903 11.7818 40.7837 12.0727 41.1504 12.0727C41.5172 12.0727 41.8106 11.7818 41.8106 11.4182V10.3273C42.3974 10.4 42.8375 10.4727 43.1309 10.6182C43.4977 10.7636 43.9378 10.6182 44.2312 10.3273C45.4782 8.72727 47.0919 7.27273 47.532 7.27273C47.6054 7.27273 47.8254 7.41818 47.9721 7.70909C48.3389 8.72727 48.1922 10.9818 48.1189 11.9273C48.1189 12.2182 48.1189 12.4364 48.1189 12.5091C48.1189 12.8 48.9991 15.7818 50.0994 19.0545L48.6323 19.7818C48.2656 19.9273 48.1922 20.3636 48.3389 20.6545C48.4856 20.8727 48.7057 21.0182 48.9257 21.0182C48.9991 21.0182 49.1458 21.0182 49.2191 20.9455L50.5395 20.2909C50.6128 20.4364 50.6128 20.5091 50.6862 20.6545L48.1922 21.8182C47.8254 21.9636 47.7521 22.4 47.8988 22.6909C48.0455 22.9091 48.2656 23.0545 48.4856 23.0545C48.559 23.0545 48.7057 23.0545 48.779 22.9818L51.1263 21.8909C51.493 22.9818 51.9331 24.0727 52.2266 25.0182H26.8468C27.1402 24.1455 27.507 23.1273 27.9471 22.0364ZM61.1755 26.4L60.5153 28.8727C60.2219 30.0364 60.0019 31.1273 59.7818 32.2909C59.2683 32.2909 58.8282 32.4364 58.3881 32.5818C58.6082 31.2 58.9016 29.8909 59.2683 28.5091L59.4884 27.7091H19.5116L19.7317 28.5091C20.0984 29.8182 20.3185 31.2 20.6119 32.5818C20.1718 32.4364 19.6583 32.2909 19.2182 32.2909C18.9981 31.1273 18.7781 30.0364 18.4847 28.8727L17.8245 26.4H61.1755ZM18.338 33.9636C18.338 33.8909 18.4847 33.6 18.6314 33.6C18.7781 33.6 18.8514 33.6 18.9981 33.6C19.6583 33.6 20.3185 33.8182 20.8319 34.2545C21.4921 34.7636 21.8589 35.4182 21.9322 36.2182C22.0056 37.0182 21.7855 37.7455 21.3454 38.4C20.8319 39.0545 20.1718 39.4182 19.3649 39.4909C19.2182 39.4909 19.0715 39.2727 18.9981 39.2C18.1913 38.1091 17.8245 35.2 18.338 33.9636ZM1.32033 34.8364C1.32033 21.6 8.36212 9.23636 19.7317 2.4L18.9981 8.50909L24.3528 10.6909C15.9907 15.8545 10.8561 24.9455 10.8561 34.7636C10.8561 42.4 13.9369 49.3091 18.9248 54.4727V57.6727C15.4773 54.6182 12.6899 50.8364 10.8561 46.4727C10.7094 46.1091 10.3426 45.9636 9.97586 46.1091C9.6091 46.2545 9.4624 46.6182 9.6091 46.9818C11.663 52 14.8904 56.2182 18.9248 59.4909V62.4C15.4773 59.8545 12.4698 56.7273 10.1226 52.9455C9.90251 52.6545 9.53575 52.5091 9.16899 52.7273C8.87558 52.9455 8.72888 53.3091 8.94893 53.6727C11.5896 57.8182 14.9638 61.3091 18.9248 64.0727C18.9981 65.1636 19.2182 66.1818 19.5116 67.1273C8.65553 60.4364 1.32033 48.5091 1.32033 34.8364ZM56.1876 69.8909C54.6472 71.6364 52.0799 73.5273 48.779 75.3455C46.4318 76.6545 43.2043 77.8182 39.9034 78.6182L39.4633 78.6909L39.0232 78.6182C36.0891 77.9636 32.5682 76.6545 30.1476 75.3455C27.0669 73.7455 24.4262 71.7091 22.7391 69.8909C21.9322 68.9455 21.2721 67.9273 20.9053 66.8364C20.4652 65.7455 20.3185 64.5818 20.3185 63.3455V44C20.3185 42.9091 20.2451 41.7455 20.2451 40.6545C20.6852 40.5091 21.1253 40.2909 21.5655 40C21.6388 41.3091 21.7122 42.6182 21.7122 44V63.3455C21.7122 64.4364 21.8589 65.4546 22.2256 66.4C22.5924 67.3455 23.1059 68.2182 23.8394 69.0182C25.6732 71.0546 28.6806 73.0182 30.9545 74.2545C33.2284 75.4909 36.676 76.6545 39.39 77.3091H39.6834C42.3974 76.6545 45.6982 75.5636 48.1189 74.2545C50.5395 72.9455 53.4735 71.0546 55.234 69.0182C55.9675 68.2182 56.481 67.3455 56.8477 66.4C57.2145 65.4546 57.3612 64.4364 57.3612 63.3455V44C57.3612 42.6182 57.4345 41.3091 57.5079 40C57.8747 40.2909 58.3148 40.5091 58.8282 40.6545C58.7549 41.7455 58.6815 42.9091 58.6815 44V63.3455C58.6815 64.5818 58.4615 65.7455 58.0947 66.8364C57.6546 67.9273 57.0678 69.0182 56.1876 69.8909ZM59.415 67.1273C59.7818 66.1818 59.9285 65.0909 60.0019 64.0727C63.8895 61.3818 67.3371 57.8909 69.9777 53.6727C70.1978 53.3818 70.0511 52.9455 69.7577 52.7273C69.4643 52.5091 69.0241 52.6545 68.8041 52.9455C66.4568 56.6545 63.4494 59.8545 60.0019 62.4V59.4909C63.9629 56.2182 67.1903 52 69.3176 46.9818C69.4643 46.6182 69.3176 46.2545 68.9508 46.1091C68.584 45.9636 68.2173 46.1091 68.0706 46.4727C66.2368 50.9091 63.4494 54.6909 60.0019 57.6727V54.5455C64.9898 49.4545 68.0706 42.4727 68.0706 34.8364C68.0706 25.0182 62.9359 15.9273 54.5738 10.7636L59.9285 8.58182L59.195 2.47273C70.6379 9.30909 77.6063 21.6 77.6063 34.9091C77.6797 48.5091 70.3445 60.4364 59.415 67.1273Z" fill="white"/>
</g>
</svg>
